<svg xmlns="http://www.w3.org/2000/svg" viewBox="0 0 93.24 66.2"><defs><style>.cls-1{fill:#adf0ff;}.cls-2{fill:#52c6ff;}.cls-3{fill:#ebaf6e;}.cls-4{fill:#00a19a;}.cls-5{fill:#3c3c3b;}.cls-6{fill:#e6332a;}.cls-7{fill:#be1622;}.cls-8{fill:#c72c24;}.cls-9{fill:#9f121c;}.cls-10{fill:#ffbe78;}.cls-11{fill:#575756;}.cls-12{fill:#7b6a58;}.cls-13{fill:#f39200;}.cls-14{fill:#f9b233;}.cls-15{fill:#ffc78a;}</style></defs><g id="圖層_2" data-name="圖層 2"><g id="Layer_3" data-name="Layer 3"><path class="cls-1" d="M87.16,50.47v9.26a12.38,12.38,0,0,1-5.2-1,11.11,11.11,0,0,0-8.38,0,13.64,13.64,0,0,1-10.4,0,11.11,11.11,0,0,0-8.38,0,12.34,12.34,0,0,1-5.2,1,12.42,12.42,0,0,1-5.2-1,9.76,9.76,0,0,0-4.19-.82A9.74,9.74,0,0,0,36,58.7a12.38,12.38,0,0,1-5.2,1,12.47,12.47,0,0,1-5.21-1,9.71,9.71,0,0,0-4.18-.82,9.74,9.74,0,0,0-4.18.82,12.4,12.4,0,0,1-5.21,1,12.38,12.38,0,0,1-5.2-1,9.71,9.71,0,0,0-4.18-.82V48.62a12.56,12.56,0,0,1,5.2,1,9.55,9.55,0,0,0,4.18.84,9.54,9.54,0,0,0,4.19-.84,12.6,12.6,0,0,1,5.2-1,12.56,12.56,0,0,1,5.2,1,9.57,9.57,0,0,0,4.19.84A9.52,9.52,0,0,0,35,49.63a12.64,12.64,0,0,1,5.2-1,12.56,12.56,0,0,1,5.2,1,9.57,9.57,0,0,0,4.19.84,9.57,9.57,0,0,0,4.19-.84,13.89,13.89,0,0,1,10.4,0,10.87,10.87,0,0,0,8.38,0,13.89,13.89,0,0,1,10.4,0A9.6,9.6,0,0,0,87.16,50.47Z"/><path class="cls-2" d="M87.16,50.47v2.78a12.38,12.38,0,0,1-5.2-1,11.11,11.11,0,0,0-8.38,0,13.64,13.64,0,0,1-10.4,0,11.11,11.11,0,0,0-8.38,0,12.34,12.34,0,0,1-5.2,1,12.42,12.42,0,0,1-5.2-1,9.76,9.76,0,0,0-4.19-.82,9.74,9.74,0,0,0-4.18.82,12.38,12.38,0,0,1-5.2,1,12.47,12.47,0,0,1-5.21-1,9.71,9.71,0,0,0-4.18-.82,9.74,9.74,0,0,0-4.18.82,12.4,12.4,0,0,1-5.21,1,12.38,12.38,0,0,1-5.2-1,9.71,9.71,0,0,0-4.18-.82V48.62a12.53,12.53,0,0,1,5.2,1,9.72,9.72,0,0,0,4.18.83,9.7,9.7,0,0,0,4.19-.83,12.57,12.57,0,0,1,5.2-1,12.53,12.53,0,0,1,5.2,1,9.74,9.74,0,0,0,4.19.83A9.69,9.69,0,0,0,35,49.64a12.61,12.61,0,0,1,5.2-1,12.53,12.53,0,0,1,5.2,1,9.74,9.74,0,0,0,4.19.83,9.74,9.74,0,0,0,4.19-.83,13.76,13.76,0,0,1,10.4,0,11,11,0,0,0,8.38,0,13.76,13.76,0,0,1,10.4,0A9.77,9.77,0,0,0,87.16,50.47Z"/><path class="cls-2" d="M87.16,57v2.78a12.38,12.38,0,0,1-5.2-1,11.11,11.11,0,0,0-8.38,0,13.64,13.64,0,0,1-10.4,0,11.11,11.11,0,0,0-8.38,0,12.34,12.34,0,0,1-5.2,1,12.42,12.42,0,0,1-5.2-1,9.76,9.76,0,0,0-4.19-.82A9.74,9.74,0,0,0,36,58.7a12.38,12.38,0,0,1-5.2,1,12.47,12.47,0,0,1-5.21-1,9.71,9.71,0,0,0-4.18-.82,9.74,9.74,0,0,0-4.18.82,12.4,12.4,0,0,1-5.21,1,12.38,12.38,0,0,1-5.2-1,9.71,9.71,0,0,0-4.18-.82V55.1a12.37,12.37,0,0,1,5.2,1,9.72,9.72,0,0,0,4.18.83,9.7,9.7,0,0,0,4.19-.83,12.41,12.41,0,0,1,5.2-1,12.37,12.37,0,0,1,5.2,1,9.74,9.74,0,0,0,4.19.83A9.69,9.69,0,0,0,35,56.12a12.45,12.45,0,0,1,5.2-1,12.37,12.37,0,0,1,5.2,1A9.74,9.74,0,0,0,49.6,57a9.74,9.74,0,0,0,4.19-.83,13.76,13.76,0,0,1,10.4,0,11,11,0,0,0,8.38,0,13.76,13.76,0,0,1,10.4,0A9.77,9.77,0,0,0,87.16,57Z"/><path class="cls-1" d="M87.16,57V66.2a12.38,12.38,0,0,1-5.2-1,11.11,11.11,0,0,0-8.38,0,13.64,13.64,0,0,1-10.4,0,11.11,11.11,0,0,0-8.38,0,12.34,12.34,0,0,1-5.2,1,12.42,12.42,0,0,1-5.2-1,9.76,9.76,0,0,0-4.19-.82,9.74,9.74,0,0,0-4.18.82,12.38,12.38,0,0,1-5.2,1,12.47,12.47,0,0,1-5.21-1,9.71,9.71,0,0,0-4.18-.82,9.74,9.74,0,0,0-4.18.82,12.4,12.4,0,0,1-5.21,1,12.38,12.38,0,0,1-5.2-1,9.71,9.71,0,0,0-4.18-.82V55.1a12.22,12.22,0,0,1,5.2,1,9.72,9.72,0,0,0,4.18.83,9.7,9.7,0,0,0,4.19-.83,12.25,12.25,0,0,1,5.2-1,12.22,12.22,0,0,1,5.2,1,9.74,9.74,0,0,0,4.19.83A9.69,9.69,0,0,0,35,56.12a12.29,12.29,0,0,1,5.2-1,12.22,12.22,0,0,1,5.2,1A9.74,9.74,0,0,0,49.6,57a9.74,9.74,0,0,0,4.19-.83,12.25,12.25,0,0,1,5.2-1,12.22,12.22,0,0,1,5.2,1,11,11,0,0,0,8.38,0,13.76,13.76,0,0,1,10.4,0A9.77,9.77,0,0,0,87.16,57Z"/><path class="cls-2" d="M87.16,57v2.77a12.41,12.41,0,0,1-5.2-1,11,11,0,0,0-8.38,0,13.76,13.76,0,0,1-10.4,0,11,11,0,0,0-8.38,0,12.37,12.37,0,0,1-5.2,1,12.45,12.45,0,0,1-5.2-1,9.59,9.59,0,0,0-4.19-.83A9.57,9.57,0,0,0,36,58.7a12.41,12.41,0,0,1-5.2,1,12.5,12.5,0,0,1-5.21-1,9.54,9.54,0,0,0-4.18-.83,9.57,9.57,0,0,0-4.18.83,12.43,12.43,0,0,1-5.21,1,12.41,12.41,0,0,1-5.2-1,9.54,9.54,0,0,0-4.18-.83V55.1a12.22,12.22,0,0,1,5.2,1,9.72,9.72,0,0,0,4.18.83,9.7,9.7,0,0,0,4.19-.83,12.25,12.25,0,0,1,5.2-1,12.22,12.22,0,0,1,5.2,1,9.74,9.74,0,0,0,4.19.83A9.69,9.69,0,0,0,35,56.12a12.29,12.29,0,0,1,5.2-1,12.22,12.22,0,0,1,5.2,1A9.74,9.74,0,0,0,49.6,57a9.74,9.74,0,0,0,4.19-.83,12.25,12.25,0,0,1,5.2-1,12.22,12.22,0,0,1,5.2,1,11,11,0,0,0,8.38,0,13.76,13.76,0,0,1,10.4,0A9.77,9.77,0,0,0,87.16,57Z"/><path class="cls-2" d="M87.16,63.43V66.2a12.41,12.41,0,0,1-5.2-1,11,11,0,0,0-8.38,0,13.76,13.76,0,0,1-10.4,0,11,11,0,0,0-8.38,0,12.37,12.37,0,0,1-5.2,1,12.45,12.45,0,0,1-5.2-1,9.59,9.59,0,0,0-4.19-.83,9.57,9.57,0,0,0-4.18.83,12.41,12.41,0,0,1-5.2,1,12.5,12.5,0,0,1-5.21-1,9.54,9.54,0,0,0-4.18-.83,9.57,9.57,0,0,0-4.18.83,12.43,12.43,0,0,1-5.21,1,12.41,12.41,0,0,1-5.2-1,9.54,9.54,0,0,0-4.18-.83V61.58a12.4,12.4,0,0,1,5.2,1,9.55,9.55,0,0,0,4.18.84,9.54,9.54,0,0,0,4.19-.84,12.44,12.44,0,0,1,5.2-1,12.4,12.4,0,0,1,5.2,1,9.57,9.57,0,0,0,4.19.84A9.52,9.52,0,0,0,35,62.59a12.48,12.48,0,0,1,5.2-1,12.4,12.4,0,0,1,5.2,1,9.57,9.57,0,0,0,4.19.84,9.57,9.57,0,0,0,4.19-.84,13.89,13.89,0,0,1,10.4,0,10.87,10.87,0,0,0,8.38,0,13.89,13.89,0,0,1,10.4,0A9.6,9.6,0,0,0,87.16,63.43Z"/><path class="cls-3" d="M25.69,27.12a3.07,3.07,0,0,0-1.25,4.16l0,0a3.07,3.07,0,0,0,4.16,1.27l5.29-2.83-2.67-5.61Z"/><path class="cls-4" d="M39.06,23.55l0-.05c-.32-.58-2.77-1.11-3.32-1.38a10.9,10.9,0,0,0-1.8.61l-2.67,1.43,2.67,5.61h0l1.2-.64,2.65-1.42A3.07,3.07,0,0,0,39.06,23.55Z"/><path class="cls-4" d="M57,24.77A3.07,3.07,0,0,0,53,23l-.06,0a3.08,3.08,0,0,0-1.75,4l2.11,5.4,5.61-2.7Z"/><path class="cls-3" d="M62.35,38.56,58.9,29.73l-5.61,2.7,3.27,8.39a3.08,3.08,0,0,0,4,1.74l.05,0A3.07,3.07,0,0,0,62.35,38.56Z"/><path class="cls-3" d="M65.77,32.33l0,.1c-.17.44-.63,1.66-1.18,3.09l-2.28,6a3.07,3.07,0,0,1-4.18,1.19l-.06,0a3.09,3.09,0,0,1-1.17-4.19s2.92-4.18,4.73-6.72l.51-.73Z"/><path class="cls-4" d="M54.65,23.81,53.65,44a1.09,1.09,0,0,1-1.09,1H37.26a1.08,1.08,0,0,1-1.08-1l-.92-13.79-.08-1.13-.38-5.84a1.1,1.1,0,0,1,.58-1,.83.83,0,0,1,.22-.08l.17,0L37,22l.14,0,7.65-.77a.93.93,0,0,1,.29,0l9.54,1.66C55.19,23,54.68,23.26,54.65,23.81Z"/><path class="cls-5" d="M53.59,46.05H36.24a1,1,0,1,1,0-2H53.59a1,1,0,0,1,0,2Z"/><polygon class="cls-6" points="44.92 45.05 36.24 45.05 27.95 49.28 44.92 47.29 44.92 45.05"/><polygon class="cls-7" points="27.95 49.28 31.32 57.41 44.92 57.41 44.92 47.29 27.95 49.28"/><polygon class="cls-8" points="44.92 45.05 53.59 45.05 61.88 49.28 44.92 47.29 44.92 45.05"/><polygon class="cls-9" points="61.88 49.28 58.52 57.41 44.92 57.41 44.92 47.29 61.88 49.28"/><path class="cls-3" d="M48.38,21.78c0,3-6.93,2.28-6.89-.2l0-7.11,6.89,0Z"/><path class="cls-10" d="M45.06,20H45c-1.75,0-2.51-.24-3.44-1.3a21.73,21.73,0,0,1-1.43-1.92A9,9,0,0,1,39,13.69a.45.45,0,0,1-.11,0,.64.64,0,0,1-.36,0c-.51-.18-.68-.91-.84-1.84-.2-1.16-.15-2.19.49-2.3a1.08,1.08,0,0,1,1,.57l0-3.11a2.48,2.48,0,0,1,2.45-2.5l6.66-.06c1.37,0,2.83.79,2.84,2.16L51,9.39c.28-.41.38,0,.73,0,.64.1.76,1.13.58,2.29-.14.94-.35,1.67-.86,1.86a.65.65,0,0,1-.36,0l-.11,0a9,9,0,0,1-1.11,3.1,21.9,21.9,0,0,1-1.39,1.94C47.57,19.7,46.81,20,45.06,20Z"/><path class="cls-11" d="M39.53,6a2.72,2.72,0,0,0-.2.63,2,2,0,0,0,0,.42v3.44s0,0-.06,0a5.27,5.27,0,0,0-.55-.74h0a.49.49,0,0,0-.37-.17L38.1,6.86A5.06,5.06,0,0,1,38.37,5,5.33,5.33,0,0,0,39.53,6Z"/><path class="cls-5" d="M43.59,1.11c-.37-.33,0-1.2,0-1.1.78,1,1.89.64,4.63,1.47h0A5.54,5.54,0,0,1,50.44,3c.11.11.21.23.31.35a5.21,5.21,0,0,1,1.16,3.41l-.17,2.69a.57.57,0,0,0-.46.18,2,2,0,0,0-.46.74,28.81,28.81,0,0,0-.22-4.5C49,2.06,42.79,11.51,36.39,3.74c0-.07.85-.11.79-.18a7.36,7.36,0,0,1-1.12-2.15s.79,1,2.94.83c.11,0-.4-.64-.29-.62a5.54,5.54,0,0,0,2.89-.13h0A5.22,5.22,0,0,1,43.59,1.11Z"/><path class="cls-3" d="M28.49,19.11,25,18.91c0,.21,0,.4-.05.54L24,29.79a3.07,3.07,0,0,0,3.07,3.08h.06a3.06,3.06,0,0,0,3.08-3.06Z"/><path class="cls-3" d="M28.24,25.48l-3.43-.54,0-3.45c-.75-.2-.92-1.25-.67-2.35l1.13-4.37c2.16-.26,3.82,1,6,1.57l-.56,2.37,1.06.22h0c0,.1-.89,2.18-1,2.34a2.45,2.45,0,0,1-1.56,1.21l-.39.08Z"/><path class="cls-3" d="M67.6,28l-.67,3.58c-.21,1.11-.8,2-1.56,1.88h0l0,.1c-.16.44-.63,1.67-1.17,3.09l-3.51-.94.55-2.84v-.11l-.32-.23a2.51,2.51,0,0,1-.94-1.75v0c0-.36.07-2.39.08-2.49l1,.23.46-2.39C63.8,26.4,65.61,27.37,67.6,28Z"/><rect class="cls-12" x="48.66" y="-9.83" width="2.21" height="68.58" transform="translate(11.45 64.55) rotate(-72.47)"/><path class="cls-13" d="M93.08,35.88,91.76,40a3.51,3.51,0,0,1-4.85,2.12L74.59,36.83a3.51,3.51,0,0,1-1.84-4.23l.48-1.55a3.51,3.51,0,0,1,3.94-2.4l13.15,2.71A3.52,3.52,0,0,1,93.08,35.88Z"/><path class="cls-14" d="M80.21,34.09v0a1.51,1.51,0,0,1-1.9,1l-8.17-2.59.92-2.91,8.17,2.58A1.52,1.52,0,0,1,80.21,34.09Z"/><path class="cls-13" d="M.16,11.06,1.48,6.9A3.51,3.51,0,0,1,6.33,4.78l12.32,5.33a3.5,3.5,0,0,1,1.84,4.23L20,15.89a3.51,3.51,0,0,1-3.94,2.4L2.92,15.58A3.52,3.52,0,0,1,.16,11.06Z"/><path class="cls-14" d="M13,12.85v0a1.51,1.51,0,0,1,1.9-1l8.17,2.58-.92,2.91L14,14.75A1.51,1.51,0,0,1,13,12.85Z"/><path class="cls-10" d="M62.39,27.77a.86.86,0,0,1-1,.7l-.16,0a.85.85,0,0,1-.69-1l.3-1.7a.78.78,0,0,1,.92-.64l.32.05a.75.75,0,0,1,.6.86Z"/><path class="cls-10" d="M64.19,28a.84.84,0,0,1-.35.56.81.81,0,0,1-.64.15l-.15,0a.85.85,0,0,1-.7-1l.34-2.15A.78.78,0,0,1,63,25a.77.77,0,0,1,.6-.14l.32.06a.74.74,0,0,1,.61.84Z"/><path class="cls-10" d="M66,28.5a.86.86,0,0,1-1,.7l-.15,0a.88.88,0,0,1-.55-.35.86.86,0,0,1-.14-.64l.29-1.7a.81.81,0,0,1,.92-.65l.32.06a.71.71,0,0,1,.48.3.8.8,0,0,1,.13.56Z"/><path class="cls-10" d="M67.42,29a.67.67,0,0,1-.8.52l-.13,0a.67.67,0,0,1-.58-.77l.22-1.3a.63.63,0,0,1,.76-.49l.26,0a.61.61,0,0,1,.51.67Z"/><path class="cls-15" d="M61.61,32.76A1.55,1.55,0,0,0,63,30.23a3.08,3.08,0,0,0-1.06-.78v-.29a.47.47,0,0,1,.19-.38l.69-.54a1.14,1.14,0,0,0,.43-.78,1.12,1.12,0,0,0-.25-.84l-.11-.14a.53.53,0,0,0-.76-.09l-.75.59-1.12.87a.57.57,0,0,0-.22.37h0c0,.11-.08,2.36-.07,2.53a2.47,2.47,0,0,0,.93,1.75l.33.23Z"/><path class="cls-10" d="M29.87,17.55a.85.85,0,0,0,.62,1l.15,0a.87.87,0,0,0,.65-.1.86.86,0,0,0,.39-.52l.42-1.67a.8.8,0,0,0-.58-1l-.31-.08a.74.74,0,0,0-.9.54Z"/><path class="cls-10" d="M28,17.39a.82.82,0,0,0,.09.65.83.83,0,0,0,.53.4l.15,0a.86.86,0,0,0,1-.61l.56-2.1a.8.8,0,0,0-.57-1l-.31-.08a.74.74,0,0,0-.9.53Z"/><path class="cls-10" d="M26.29,16.7a.87.87,0,0,0,.62,1l.16,0a.85.85,0,0,0,.64-.1.79.79,0,0,0,.39-.52l.42-1.67a.8.8,0,0,0-.57-1l-.32-.08a.73.73,0,0,0-.56.08.76.76,0,0,0-.34.46Z"/><path class="cls-10" d="M25,16.1a.69.69,0,0,0,.53.81l.12,0a.69.69,0,0,0,.85-.47l.32-1.28a.64.64,0,0,0-.49-.75L26,14.37a.59.59,0,0,0-.73.4Z"/><path class="cls-15" d="M28.54,22.43a1.56,1.56,0,0,1-.21-2.87,3,3,0,0,1,1.28-.28l.12-.27a.48.48,0,0,0,0-.42l-.41-.78a1.17,1.17,0,0,1-.08-.88,1.2,1.2,0,0,1,.57-.68l.16-.08a.55.55,0,0,1,.74.23l.44.84.67,1.26a.58.58,0,0,1,.05.43h0c0,.1-.89,2.18-1,2.34a2.45,2.45,0,0,1-1.56,1.21l-.39.08Z"/></g></g></svg>