<svg xmlns="http://www.w3.org/2000/svg" viewBox="0 0 94.3 61.32"><defs><style>.cls-1{fill:#adf0ff;}.cls-2{fill:#52c6ff;}.cls-3{fill:#c6c6c6;}.cls-4{fill:#f9b233;}.cls-5{fill:#ffbe78;}.cls-6{fill:#3c3c3b;}.cls-7{fill:#ebaf6e;}.cls-8{fill:#2e2e2d;}.cls-9{fill:#00a19a;}.cls-10{fill:#006964;}.cls-11{fill:#706f6f;}.cls-12{fill:#fff;}</style></defs><g id="圖層_2" data-name="圖層 2"><g id="Layer_3" data-name="Layer 3"><path class="cls-1" d="M94.3,2.07V12.4a13.79,13.79,0,0,1-5.81-1.15,12.44,12.44,0,0,0-9.34,0,13.81,13.81,0,0,1-5.82,1.15,13.7,13.7,0,0,1-5.8-1.15,12.46,12.46,0,0,0-9.35,0,13.7,13.7,0,0,1-5.8,1.15,13.79,13.79,0,0,1-5.81-1.15,10.92,10.92,0,0,0-4.67-.91,10.92,10.92,0,0,0-4.67.91,13.74,13.74,0,0,1-5.8,1.15,13.75,13.75,0,0,1-5.81-1.15A10.92,10.92,0,0,0,21,10.34a10.92,10.92,0,0,0-4.67.91,13.75,13.75,0,0,1-5.81,1.15,13.7,13.7,0,0,1-5.8-1.15A10.92,10.92,0,0,0,0,10.34V0A13.89,13.89,0,0,1,5.8,1.14a10.88,10.88,0,0,0,4.67.93,10.9,10.9,0,0,0,4.68-.93A13.89,13.89,0,0,1,21,0a13.89,13.89,0,0,1,5.8,1.14,10.9,10.9,0,0,0,4.68.93,10.88,10.88,0,0,0,4.67-.93A13.89,13.89,0,0,1,41.9,0a13.89,13.89,0,0,1,5.8,1.14,10.9,10.9,0,0,0,4.68.93,10.85,10.85,0,0,0,4.67-.93,15.38,15.38,0,0,1,11.62,0,10.8,10.8,0,0,0,4.66.93A10.86,10.86,0,0,0,78,1.14a15.38,15.38,0,0,1,11.62,0A10.88,10.88,0,0,0,94.3,2.07Z"/><path class="cls-2" d="M94.3,2.07v3.1A13.79,13.79,0,0,1,88.49,4a12.31,12.31,0,0,0-9.34,0,13.81,13.81,0,0,1-5.82,1.15A13.7,13.7,0,0,1,67.53,4a12.34,12.34,0,0,0-9.35,0,13.7,13.7,0,0,1-5.8,1.15A13.79,13.79,0,0,1,46.57,4,10.9,10.9,0,0,0,41.9,3.1,10.9,10.9,0,0,0,37.23,4a13.74,13.74,0,0,1-5.8,1.15A13.75,13.75,0,0,1,25.62,4,10.9,10.9,0,0,0,21,3.1,10.9,10.9,0,0,0,16.28,4a13.75,13.75,0,0,1-5.81,1.15A13.7,13.7,0,0,1,4.67,4,10.9,10.9,0,0,0,0,3.1V0A14.08,14.08,0,0,1,5.8,1.14a10.74,10.74,0,0,0,4.67.93,10.75,10.75,0,0,0,4.68-.93A14.08,14.08,0,0,1,21,0a14.08,14.08,0,0,1,5.8,1.13,10.75,10.75,0,0,0,4.68.93,10.74,10.74,0,0,0,4.67-.93A14.08,14.08,0,0,1,41.9,0a14.08,14.08,0,0,1,5.8,1.13,10.75,10.75,0,0,0,4.68.93,10.7,10.7,0,0,0,4.67-.93,15.5,15.5,0,0,1,11.62,0,10.65,10.65,0,0,0,4.66.93A10.72,10.72,0,0,0,78,1.14a15.5,15.5,0,0,1,11.62,0A10.74,10.74,0,0,0,94.3,2.07Z"/><path class="cls-2" d="M94.3,9.3v3.1a13.79,13.79,0,0,1-5.81-1.15,12.44,12.44,0,0,0-9.34,0,13.81,13.81,0,0,1-5.82,1.15,13.7,13.7,0,0,1-5.8-1.15,12.46,12.46,0,0,0-9.35,0,13.7,13.7,0,0,1-5.8,1.15,13.79,13.79,0,0,1-5.81-1.15,10.92,10.92,0,0,0-4.67-.91,10.92,10.92,0,0,0-4.67.91,13.74,13.74,0,0,1-5.8,1.15,13.75,13.75,0,0,1-5.81-1.15A10.92,10.92,0,0,0,21,10.34a10.92,10.92,0,0,0-4.67.91,13.75,13.75,0,0,1-5.81,1.15,13.7,13.7,0,0,1-5.8-1.15A10.92,10.92,0,0,0,0,10.34V7.24A13.73,13.73,0,0,1,5.8,8.38a10.9,10.9,0,0,0,4.67.92,10.92,10.92,0,0,0,4.68-.92A13.73,13.73,0,0,1,21,7.24a13.73,13.73,0,0,1,5.8,1.14,10.92,10.92,0,0,0,4.68.92,10.9,10.9,0,0,0,4.67-.92,13.73,13.73,0,0,1,5.8-1.14,13.73,13.73,0,0,1,5.8,1.14,10.92,10.92,0,0,0,4.68.92,10.87,10.87,0,0,0,4.67-.92,15.38,15.38,0,0,1,11.62,0,10.82,10.82,0,0,0,4.66.92A10.89,10.89,0,0,0,78,8.38a15.38,15.38,0,0,1,11.62,0A10.9,10.9,0,0,0,94.3,9.3Z"/><path class="cls-1" d="M94.3,9.3v52a14,14,0,0,1-5.81-1.14,12.31,12.31,0,0,0-9.34,0,15.38,15.38,0,0,1-11.62,0,12.34,12.34,0,0,0-9.35,0,13.89,13.89,0,0,1-5.8,1.14,14,14,0,0,1-5.81-1.14,10.76,10.76,0,0,0-4.67-.92,10.76,10.76,0,0,0-4.67.92,13.92,13.92,0,0,1-5.8,1.14,13.94,13.94,0,0,1-5.81-1.14A10.76,10.76,0,0,0,21,59.26a10.76,10.76,0,0,0-4.67.92,13.94,13.94,0,0,1-5.81,1.14,13.89,13.89,0,0,1-5.8-1.14A10.76,10.76,0,0,0,0,59.26v-52A13.75,13.75,0,0,1,5.8,8.37a10.74,10.74,0,0,0,4.67.93,10.75,10.75,0,0,0,4.68-.93A13.75,13.75,0,0,1,21,7.24a13.75,13.75,0,0,1,5.8,1.13,10.75,10.75,0,0,0,4.68.93,10.74,10.74,0,0,0,4.67-.93,13.75,13.75,0,0,1,5.8-1.13,13.75,13.75,0,0,1,5.8,1.13,10.75,10.75,0,0,0,4.68.93,10.7,10.7,0,0,0,4.67-.93,13.81,13.81,0,0,1,5.81-1.13,13.85,13.85,0,0,1,5.81,1.13,10.65,10.65,0,0,0,4.66.93A10.72,10.72,0,0,0,78,8.37a15.5,15.5,0,0,1,11.62,0A10.74,10.74,0,0,0,94.3,9.3Z"/><path class="cls-2" d="M94.3,9.3v3.1a13.79,13.79,0,0,1-5.81-1.15,12.31,12.31,0,0,0-9.34,0,13.81,13.81,0,0,1-5.82,1.15,13.7,13.7,0,0,1-5.8-1.15,12.34,12.34,0,0,0-9.35,0,13.7,13.7,0,0,1-5.8,1.15,13.79,13.79,0,0,1-5.81-1.15,10.9,10.9,0,0,0-4.67-.92,10.9,10.9,0,0,0-4.67.92,13.74,13.74,0,0,1-5.8,1.15,13.75,13.75,0,0,1-5.81-1.15A10.9,10.9,0,0,0,21,10.33a10.9,10.9,0,0,0-4.67.92,13.75,13.75,0,0,1-5.81,1.15,13.7,13.7,0,0,1-5.8-1.15A10.9,10.9,0,0,0,0,10.33V7.24A13.75,13.75,0,0,1,5.8,8.37a10.74,10.74,0,0,0,4.67.93,10.75,10.75,0,0,0,4.68-.93A13.75,13.75,0,0,1,21,7.24a13.75,13.75,0,0,1,5.8,1.13,10.75,10.75,0,0,0,4.68.93,10.74,10.74,0,0,0,4.67-.93,13.75,13.75,0,0,1,5.8-1.13,13.75,13.75,0,0,1,5.8,1.13,10.75,10.75,0,0,0,4.68.93,10.7,10.7,0,0,0,4.67-.93,13.81,13.81,0,0,1,5.81-1.13,13.85,13.85,0,0,1,5.81,1.13,10.65,10.65,0,0,0,4.66.93A10.72,10.72,0,0,0,78,8.37a15.5,15.5,0,0,1,11.62,0A10.74,10.74,0,0,0,94.3,9.3Z"/><path class="cls-3" d="M66.3,22.09l-.94.21-.44-1.81.94-.21a.85.85,0,0,1,1,.62l0,.17A.84.84,0,0,1,66.3,22.09Z"/><path class="cls-4" d="M63.39,24.28l-.67.13-1.46.28L54.56,26l-1.45.28-1,.18a2.53,2.53,0,0,1-3-2,2.62,2.62,0,0,1,0-.62,2.53,2.53,0,0,1,2.05-2.35l.92-.17L53.59,21l6.7-1.28,1.46-.28.69-.14a2.53,2.53,0,0,1,1,5Z"/><rect class="cls-5" x="66.25" y="22.78" width="5.25" height="3.92" transform="translate(-2.41 41.29) rotate(-32.83)"/><path class="cls-6" d="M74.19,19.93a5.29,5.29,0,0,0-1.09-.28,2.68,2.68,0,0,0-.46,0,1.26,1.26,0,0,0-.62.15h0a1.46,1.46,0,0,0-.55,1c-.06.27-.11.57-.16.92s-.1.86-.18,1.36L71,23.1s-.28-.34-.36-.19a17,17,0,0,1-4.27,0s.88-.24.86-.28A2.72,2.72,0,0,1,65.59,22a3.47,3.47,0,0,0,1.86-.23,2.31,2.31,0,0,1-1.38-.51s1.16.27,1.64-.11a7.47,7.47,0,0,1,.21-.91,1.66,1.66,0,0,1-1.87-.48c1.29.15,1.71-.32,1.71-.35a3.33,3.33,0,0,1-2.33-1.29s1.81.7,2.39.31a1.52,1.52,0,0,1-.65-.94,4.72,4.72,0,0,0,2.46.19c-.5-.3-.38-1.32-.34-1.26.43.86,1.34,1.06,2.33,1.21h0c.4.06.83.11,1.23.2l.08,0a2.9,2.9,0,0,1,1.56.84,1,1,0,0,1,.23.42C74.87,19.94,74.19,19.93,74.19,19.93Z"/><path class="cls-5" d="M74.23,23.88l-.33.05c0,.22-.12,1.18-.12,1.18-.09.56-.49,1.28-1.17,1.19l-.71-.12a2.64,2.64,0,0,1-1.8-2.84s0,0,0,0h0c-.56-.08-1.84.3-2-.2a6.18,6.18,0,0,1-.18-2.23,4.51,4.51,0,0,1,.6-1.76c.91-1.36,2.49-1.08,3.44-1a2.86,2.86,0,0,1,2.16,1.54h0l.12.28a.24.24,0,0,1,0,.08,4,4,0,0,1,.18,1.68l0,.06a2.81,2.81,0,0,1-.18.31l.33,1.29A.36.36,0,0,1,74.23,23.88Z"/><path class="cls-6" d="M74.19,19.93a6.19,6.19,0,0,0-1.09-.29l-.46,0a1.26,1.26,0,0,0-.62.15h0a1.44,1.44,0,0,0-.55,1c-.06.27-.11.57-.16.92s-.07.57-.11.89l-1.12-.06c-.11-.22-.2-.44-.24-.52,0,.15-.12.44-.13.93L68,23c-.44-.17-.45-.84-.41-1.32,0-.19,0-.39.08-.59a7.47,7.47,0,0,1,.21-.91L68,19.9a3.49,3.49,0,0,1,.39-.85,3.32,3.32,0,0,1,3.22-1.44h0a7.52,7.52,0,0,1,1.23.2l.08,0a2.9,2.9,0,0,1,1.56.84,1,1,0,0,1,.23.42C74.87,19.94,74.19,19.93,74.19,19.93Z"/><path class="cls-7" d="M24.92,32.86c0-.74,0-1.76,1.87-1.76l14,1.5a2.56,2.56,0,0,1,2.52,2.6v0a2.56,2.56,0,0,1-2.83,2.26L26.88,33.79C24.52,33.68,24.92,32.86,24.92,32.86Z"/><path class="cls-7" d="M37.94,35.12c.65,1.32,2.56,2.73,3.88,2.07l1.77-.86-1.71-4.62A30.11,30.11,0,0,0,37.94,35.12Z"/><path class="cls-8" d="M54.62,27.9l0,0A2.68,2.68,0,0,0,51,26.63a40.77,40.77,0,0,0-9.13,5.08l1.71,4.62,9.81-4.84A2.68,2.68,0,0,0,54.62,27.9Z"/><path class="cls-5" d="M30.76,46.14c-.36-.64-.26-1.86,1.37-2.82l12.2-5.46a2.56,2.56,0,0,1,3.49,1l0,0a2.57,2.57,0,0,1-1.29,3.39L32.92,46C30.83,47.05,30.76,46.14,30.76,46.14Z"/><path class="cls-5" d="M43.13,41.49c1.23.81,3.59,1.06,4.4-.18l1.23-1.87L44.35,37.1A24.22,24.22,0,0,0,43.13,41.49Z"/><path class="cls-6" d="M53.85,26.81l0,0a3.29,3.29,0,0,0-4.18.87,35.69,35.69,0,0,0-5.28,9.45l4.41,2.34,5.86-8.91A2.69,2.69,0,0,0,53.85,26.81Z"/><path class="cls-5" d="M83.68,31.28l2.69-.4c.91-.2.92.6.13.69l-2.15.32C83.33,32,83.44,31.33,83.68,31.28Z"/><path class="cls-7" d="M70.26,35.93l0,0a1.74,1.74,0,0,1-2.36-.69l-4-7.36a1.74,1.74,0,0,1,.7-2.36l0,0a1.74,1.74,0,0,1,2.36.69l4,7.36A1.74,1.74,0,0,1,70.26,35.93Z"/><path class="cls-7" d="M78.94,37.77v0c-.21.42-1.24.57-2.15.25l-8-2a1.75,1.75,0,0,1-1.06-2.23v0A1.76,1.76,0,0,1,70,32.74l7.85,3.34C78.74,36.4,79.26,36.87,78.94,37.77Z"/><path class="cls-7" d="M78,38.64a1,1,0,0,1-.7-1.19l.23-.91a.86.86,0,0,1,1-.6L82.79,37a.66.66,0,0,1,.44.39.6.6,0,0,1-.06.58l-.44.69a1.62,1.62,0,0,1-1.79.7Z"/><path class="cls-7" d="M78.28,35.92,81,35.83c.93-.08.85.71,0,.71l-2.17.07C77.85,36.58,78,35.94,78.28,35.92Z"/><path class="cls-6" d="M69.78,27.73c-.68,1.87-2.07,2.35-7.94,3.23l-6.46.74-1.47.17-.76.08L51.78,26.4l1-.2,1.46-.28,11.44-2.19a3.92,3.92,0,0,1,3.9,1.32A2.76,2.76,0,0,1,69.78,27.73Z"/><path class="cls-5" d="M76.05,31.59l0,0a1.74,1.74,0,0,1-2.37.66l-7.29-4.14a1.75,1.75,0,0,1-.66-2.38l0,0a1.73,1.73,0,0,1,2.37-.65l7.3,4.14A1.74,1.74,0,0,1,76.05,31.59Z"/><path class="cls-5" d="M84.54,33v0c-.15.44-1.16.71-2.1.5l-8.15-1.07A1.74,1.74,0,0,1,73,30.42v0a1.73,1.73,0,0,1,2.08-1.3l8.19,2.41C84.18,31.7,84.76,32.11,84.54,33Z"/><path class="cls-5" d="M83.69,34a1,1,0,0,1-.83-1.1L83,32a.84.84,0,0,1,.94-.72l4.36.6a.67.67,0,0,1,.48.34.66.66,0,0,1,0,.58l-.36.74a1.65,1.65,0,0,1-1.7.9Z"/><path class="cls-9" d="M25.64,30.75l-6.39,4.37c-8,1.19-12,.38-13.29,0L5.6,35l-.14,0,6-4c4.46,2.53,7.88,2.6,10.83,1.54A15.76,15.76,0,0,0,25.64,30.75Z"/><path class="cls-7" d="M27.82,34c1.67-2.7-.36-3.57-1.18-3.16l-6.53,3.09a.44.44,0,0,0-.25.49c0,.21.21.41.41.38C23.27,34.28,25.43,34.68,27.82,34Z"/><path class="cls-10" d="M28.51,31.28c-1.32.06-2.37,2-1.46,2.87-1.43.59-4.76.46-5.74.64-.72.13-1.41.24-2.06.33-8,1.19-12,.38-13.29,0A3,3,0,0,1,5.6,35l-.14,0a27.21,27.21,0,0,0,16.81-2.46c1.28-.6,2.54-1.27,3.77-2l.5-.29a1.2,1.2,0,0,1,1.58.31C28.42,30.88,28.67,31.28,28.51,31.28Z"/><path class="cls-9" d="M29.37,44.29l-3.35,7c-6.37,5-10.21,6.3-11.53,6.61l-.38.07L14,58l3.19-6.44c5.13,0,8.12-1.68,10.15-4.06A16.34,16.34,0,0,0,29.37,44.29Z"/><path class="cls-5" d="M32.86,46c.1-3.17-2.09-2.92-2.6-2.15l-4.12,5.93a.45.45,0,0,0,0,.56.42.42,0,0,0,.55.11C29.08,48.53,31.16,47.81,32.86,46Z"/><path class="cls-10" d="M32.13,43.32c-1.12.71-1.06,2.92.17,3.22-.95,1.22-3.9,2.77-4.67,3.42-.55.46-1.09.9-1.61,1.31-6.37,5-10.21,6.3-11.53,6.61l-.38.07L14,58a27.2,27.2,0,0,0,13.34-10.5c.82-1.16,1.57-2.38,2.28-3.62l.28-.5a1.2,1.2,0,0,1,1.53-.52C31.85,43,32.27,43.24,32.13,43.32Z"/><path class="cls-9" d="M73.27,21l-.14.92-1.82-.27-3.6-.55a7.47,7.47,0,0,1,.21-.91l3.55.54Z"/><path class="cls-5" d="M69.41,21.9c-.06.57.34,1.28.71,1.32s.39-.42.46-1c0-.38.2-.9-.19-1.07S69.51,21.06,69.41,21.9Z"/><path class="cls-10" d="M73.93,23l.94.05L75,20.33l-1-.06a.84.84,0,0,0-.62.23,1.38,1.38,0,0,0-.11,2.16A.81.81,0,0,0,73.93,23Z"/><path class="cls-3" d="M73.45,25.7l.61,0a.72.72,0,0,0,.76-.67v-.24a.71.71,0,0,0-.67-.75l-.62,0a.38.38,0,0,0-.39.36l-.05.91A.37.37,0,0,0,73.45,25.7Z"/><path class="cls-6" d="M74.66,25a.65.65,0,1,1-1.29-.08.63.63,0,0,1,.68-.6A.64.64,0,0,1,74.66,25Z"/><path class="cls-6" d="M66.71,21.21a.65.65,0,1,1-1.29-.08.66.66,0,0,1,.69-.61A.65.65,0,0,1,66.71,21.21Z"/><path class="cls-10" d="M72,26.24a4,4,0,0,1-2.67-.95,5,5,0,0,1-1-1.42,5.36,5.36,0,0,0-.53-.85A2.69,2.69,0,0,0,66,21.92a.75.75,0,0,1,.09-1.5A4.08,4.08,0,0,1,68.89,22a6,6,0,0,1,.72,1.11,3.7,3.7,0,0,0,.71,1,2.91,2.91,0,0,0,3.27.13.76.76,0,0,1,1,.27.75.75,0,0,1-.27,1A4.68,4.68,0,0,1,72,26.24Z"/><polygon class="cls-6" points="54.58 26.08 53.13 26.37 53.11 26.26 52.13 21.29 53.59 21 54.56 25.98 54.58 26.08"/><polygon class="cls-11" points="55.38 31.7 53.91 31.86 53.77 31.03 52.82 26.2 54.28 25.92 55.23 30.75 55.38 31.7"/><polygon class="cls-6" points="62.75 24.53 61.29 24.82 61.26 24.69 60.29 19.72 61.75 19.44 62.72 24.41 62.75 24.53"/><path class="cls-12" d="M63.86,43.73a.77.77,0,0,0-.49.19.64.64,0,0,0-.22.42.62.62,0,0,0,.18.48.62.62,0,0,0,.9,0,.83.83,0,0,0,.18-.49.7.7,0,0,1,0,.61.85.85,0,0,1-.54.5.91.91,0,0,1-.91-.22.89.89,0,0,1-.24-.91.83.83,0,0,1,.49-.55A.72.72,0,0,1,63.86,43.73Z"/><path class="cls-12" d="M61.93,34.26a1.25,1.25,0,0,0-.75.29,1,1,0,0,0-.33.65.92.92,0,0,0,.27.73,1,1,0,0,0,1.38-.08,1.27,1.27,0,0,0,.28-.75,1.13,1.13,0,0,1,0,.94,1.31,1.31,0,0,1-.82.77,1.42,1.42,0,0,1-1.41-.34,1.4,1.4,0,0,1-.36-1.4,1.29,1.29,0,0,1,.76-.84A1.12,1.12,0,0,1,61.93,34.26Z"/><path class="cls-12" d="M82.3,17.79a1.29,1.29,0,0,0-.72.28,1,1,0,0,0-.31.63.87.87,0,0,0,.26.7.91.91,0,0,0,1.32-.08,1.25,1.25,0,0,0,.27-.73,1.11,1.11,0,0,1,0,.9,1.22,1.22,0,0,1-.79.74A1.34,1.34,0,0,1,81,19.91a1.37,1.37,0,0,1-.34-1.35,1.26,1.26,0,0,1,.72-.8A1.07,1.07,0,0,1,82.3,17.79Z"/><path class="cls-12" d="M78.08,25.31a1.22,1.22,0,0,0-.78.3,1,1,0,0,0-.35.68,1,1,0,0,0,1.72.67,1.36,1.36,0,0,0,.29-.78,1.17,1.17,0,0,1,.05,1,1.35,1.35,0,0,1-.86.8,1.44,1.44,0,0,1-1.46-.35,1.47,1.47,0,0,1-.38-1.46,1.38,1.38,0,0,1,.79-.87A1.13,1.13,0,0,1,78.08,25.31Z"/><path class="cls-12" d="M64.78,13.32a.85.85,0,0,0-.53.21A.65.65,0,0,0,64,14a.66.66,0,0,0,1.18.47.83.83,0,0,0,.2-.54.76.76,0,0,1,0,.67,1,1,0,0,1-.59.55,1,1,0,0,1-1.27-1.24.91.91,0,0,1,.54-.6A.77.77,0,0,1,64.78,13.32Z"/><path class="cls-12" d="M84.46,12.64a.7.7,0,0,0-.4.16.52.52,0,0,0-.18.35.53.53,0,0,0,.15.39.51.51,0,0,0,.74,0,.73.73,0,0,0,.15-.4.63.63,0,0,1,0,.5.67.67,0,0,1-.44.41.72.72,0,0,1-.75-.18.75.75,0,0,1-.2-.75.69.69,0,0,1,.41-.45A.63.63,0,0,1,84.46,12.64Z"/><path class="cls-12" d="M42.64,23.25a.67.67,0,0,0-.39.15.51.51,0,0,0-.17.34.45.45,0,0,0,.14.37.49.49,0,0,0,.71,0,.65.65,0,0,0,.14-.39.53.53,0,0,1,0,.48.66.66,0,0,1-.43.4.71.71,0,0,1-.72-.17.73.73,0,0,1-.19-.73.7.7,0,0,1,.39-.43A.63.63,0,0,1,42.64,23.25Z"/><path class="cls-12" d="M53.11,41.63a1.1,1.1,0,0,0-.67.26.86.86,0,0,0-.29.58.79.79,0,0,0,.24.64A.83.83,0,0,0,53.61,43a1.13,1.13,0,0,0,.25-.67,1,1,0,0,1,0,.83,1.14,1.14,0,0,1-.73.69,1.25,1.25,0,0,1-1.25-.3,1.27,1.27,0,0,1-.32-1.25,1.19,1.19,0,0,1,.67-.74A1.06,1.06,0,0,1,53.11,41.63Z"/><path class="cls-12" d="M78,20.13a1.11,1.11,0,0,0-.71.27A.93.93,0,0,0,77,21a.85.85,0,0,0,.25.69.9.9,0,0,0,1.31-.07,1.23,1.23,0,0,0,.27-.72,1.12,1.12,0,0,1,0,.89,1.21,1.21,0,0,1-.78.73,1.33,1.33,0,0,1-1.68-1.65,1.2,1.2,0,0,1,.72-.79A1.05,1.05,0,0,1,78,20.13Z"/><path class="cls-12" d="M77.69,13.18a1.22,1.22,0,0,0-.78.3,1,1,0,0,0-.34.67,1,1,0,0,0,.28.76,1,1,0,0,0,1.43-.08,1.36,1.36,0,0,0,.29-.79,1.21,1.21,0,0,1,.05,1,1.37,1.37,0,0,1-.86.8,1.45,1.45,0,0,1-1.46-.36A1.46,1.46,0,0,1,75.93,14a1.34,1.34,0,0,1,.78-.87A1.13,1.13,0,0,1,77.69,13.18Z"/><path class="cls-12" d="M85.8,23.68a1.19,1.19,0,0,0-.75.29,1,1,0,0,0-.32.65.89.89,0,0,0,.27.73.94.94,0,0,0,1.37-.08,1.15,1.15,0,0,0,.28-.76,1.12,1.12,0,0,1,0,.94,1.29,1.29,0,0,1-.82.77,1.41,1.41,0,0,1-1.77-1.74,1.29,1.29,0,0,1,.76-.83A1,1,0,0,1,85.8,23.68Z"/><path class="cls-12" d="M87.52,14.55a.93.93,0,0,0-.57.22.81.81,0,0,0-.26.5.74.74,0,0,0,.21.56A.73.73,0,0,0,88,15.77a1,1,0,0,0,.21-.58.87.87,0,0,1,0,.72,1.06,1.06,0,0,1-.63.59,1.09,1.09,0,0,1-1.08-.26,1.1,1.1,0,0,1-.28-1.08,1,1,0,0,1,.58-.64A.81.81,0,0,1,87.52,14.55Z"/><path class="cls-12" d="M8.86,16.4a.77.77,0,0,0-.47.18.67.67,0,0,0-.2.41.58.58,0,0,0,.17.46.59.59,0,0,0,.86-.05.8.8,0,0,0,.17-.48.68.68,0,0,1,0,.59.79.79,0,0,1-.51.48A.85.85,0,0,1,8,17.78a.9.9,0,0,1-.23-.88.82.82,0,0,1,.47-.52A.69.69,0,0,1,8.86,16.4Z"/><path class="cls-12" d="M5.44,44.33a1,1,0,0,0-.59.23.75.75,0,0,0-.26.52.73.73,0,0,0,.21.58.75.75,0,0,0,1.09-.07.94.94,0,0,0,.22-.6.86.86,0,0,1,0,.75,1,1,0,0,1-.65.61A1.11,1.11,0,0,1,4.1,45a1,1,0,0,1,.6-.67A.91.91,0,0,1,5.44,44.33Z"/><path class="cls-12" d="M16.34,43.36a1.29,1.29,0,0,0-.71.28,1,1,0,0,0-.31.61.93.93,0,0,0,.26.7.9.9,0,0,0,1.3-.08,1.21,1.21,0,0,0,.27-.72,1,1,0,0,1,0,.89,1.21,1.21,0,0,1-.78.73,1.31,1.31,0,0,1-1.33-.32,1.32,1.32,0,0,1-.34-1.32,1.21,1.21,0,0,1,.72-.8A1,1,0,0,1,16.34,43.36Z"/><path class="cls-12" d="M26.14,25.47a1.1,1.1,0,0,0-.68.27.85.85,0,0,0-.3.59.82.82,0,0,0,.25.66.86.86,0,0,0,1.25-.08,1.15,1.15,0,0,0,.25-.68,1,1,0,0,1,0,.85,1.17,1.17,0,0,1-.75.7,1.24,1.24,0,0,1-1.27-.31,1.27,1.27,0,0,1-.33-1.27,1.17,1.17,0,0,1,.69-.76A1,1,0,0,1,26.14,25.47Z"/><path class="cls-12" d="M32.88,13a1.23,1.23,0,0,0-.74.29,1,1,0,0,0-.32.63.91.91,0,0,0,1.62.64,1.28,1.28,0,0,0,.27-.74,1.11,1.11,0,0,1,0,.92,1.29,1.29,0,0,1-.81.75,1.36,1.36,0,0,1-1.38-.33,1.39,1.39,0,0,1-.36-1.37A1.26,1.26,0,0,1,32,13,1.07,1.07,0,0,1,32.88,13Z"/></g></g></svg>