<svg xmlns="http://www.w3.org/2000/svg" viewBox="0 0 91.32 78.46"><defs><style>.cls-1{fill:#32b1f0;}.cls-2{fill:#adf0ff;}.cls-3{fill:#52c6ff;}.cls-4{fill:#f59300;}.cls-5{fill:#ebaf6e;}.cls-6{fill:#006964;}.cls-7{fill:#00a19a;}.cls-8{fill:#7b6a58;}.cls-9{fill:#a48a7b;}.cls-10{fill:#634e42;}.cls-11{fill:#ffbe78;}.cls-12{fill:#292928;}.cls-13{fill:#3c3c3b;}.cls-14{fill:#e68a00;}</style></defs><g id="圖層_2" data-name="圖層 2"><g id="Layer_3" data-name="Layer 3"><path class="cls-1" d="M8.26,55.44c-.17-.17.42-.84.51-1a6.49,6.49,0,0,1,1-1A11,11,0,0,1,12,52a12.36,12.36,0,0,1,6.41-1.25c5,.33,9.27,3.19,13.25,5.93s8,5.49,12.89,5.73a12.44,12.44,0,0,0,2.92-.19c.45-.08.89-.19,1.34-.29.15,0,.62-.22.77-.08S48.19,63,48.08,63.05a9.4,9.4,0,0,1-2.45.75c-4.8.82-9.38-1.39-13.33-3.88-4.17-2.62-8.09-5.88-13-7a12.27,12.27,0,0,0-6.39.28,14.14,14.14,0,0,0-2.47,1.06c-.37.2-.75.41-1.1.63C9.17,55,8.45,55.61,8.26,55.44Z"/><path class="cls-2" d="M9.33,50.6c-.16-.18.54-.81.65-.91a8.28,8.28,0,0,1,1.07-.8,10,10,0,0,1,2.51-1.08,14.68,14.68,0,0,1,6.56-.24c4.82.85,8.91,3.72,12.74,6.61s7.34,5.69,11.76,7.18a19.28,19.28,0,0,0,5.93,1c.25,0,.87-.09,1.06.11s-.86.54-1,.58a10.54,10.54,0,0,1-2.73.4c-4.67.08-9-2.17-12.79-4.74-4-2.74-7.7-6-12.15-8a17.12,17.12,0,0,0-7.45-1.58,13.33,13.33,0,0,0-3.49.57,12.74,12.74,0,0,0-1.34.51C10.51,50.21,9.49,50.8,9.33,50.6Z"/><path class="cls-3" d="M19.32,45.78c0-.27.89-.41,1.06-.43a7.53,7.53,0,0,1,1.35-.11,11.77,11.77,0,0,1,3.17.49,18.75,18.75,0,0,1,6,3.11c3.84,2.89,6.89,6.71,10.76,9.56a19.61,19.61,0,0,0,6,3.09,22.08,22.08,0,0,0,2.38.54c.09,0,1,.15.78.39a2.47,2.47,0,0,1-1.28.39,8.09,8.09,0,0,1-1.3.06,12.35,12.35,0,0,1-3.19-.56,18.88,18.88,0,0,1-6-3.22c-3.72-2.9-6.74-6.6-10.54-9.39a19.39,19.39,0,0,0-5.86-3.05,21,21,0,0,0-2.35-.54c-.16,0-.94-.08-1-.33C19.31,45.7,19.35,46.15,19.32,45.78Z"/><path class="cls-4" d="M60.44,54.16c-.62,2.06-.47,4.49.65,4.2l8.83-2.15a.56.56,0,0,0,.44-.55.57.57,0,0,0-.42-.56A26,26,0,0,0,60.44,54.16Z"/><path class="cls-4" d="M70,55.06a29.8,29.8,0,0,0-6.4-1.17L64,57.64l5.94-1.47a.56.56,0,0,0,.44-.55A.58.58,0,0,0,70,55.06Z"/><path class="cls-4" d="M45.36,62.91a.58.58,0,0,1-.14-1.15l40.25-9.92a6.26,6.26,0,0,0,4.24-3.63.6.6,0,0,1,.77-.33.57.57,0,0,1,.32.75,7.43,7.43,0,0,1-5,4.34L45.5,62.89A.32.32,0,0,1,45.36,62.91Z"/><path class="cls-4" d="M90.27,25.08h-24a.4.4,0,0,0-.39.39.39.39,0,0,0,.39.39h24Z"/><path class="cls-4" d="M56.61,28.1a.39.39,0,0,1-.38-.31.38.38,0,0,1,.29-.46l9.81-2.24a.4.4,0,0,1,.47.3.38.38,0,0,1-.29.46l-9.82,2.24Z"/><path class="cls-4" d="M66.42,25.86a.42.42,0,0,1-.21-.06l-5.64-3.59a.39.39,0,0,1-.12-.54.4.4,0,0,1,.54-.12l5.64,3.59a.4.4,0,0,1,.12.54A.39.39,0,0,1,66.42,25.86Z"/><path class="cls-4" d="M61.5,22.14c-.18.26-.65.23-1-.05s-.58-.72-.4-1,.65-.24,1.06.05S61.69,21.88,61.5,22.14Z"/><path class="cls-4" d="M61.5,22.14l-1.63,2.33-1.46-1,1.64-2.33c.18-.26.65-.24,1.06.05S61.69,21.88,61.5,22.14Z"/><path class="cls-4" d="M59.87,24.47c.18-.26,0-.7-.4-1s-.88-.3-1.06,0,0,.7.4,1S59.69,24.72,59.87,24.47Z"/><path class="cls-4" d="M62.49,56.23c-.77.42-1.8,1.05-2.83-.71l-8.5-13.8a2.89,2.89,0,0,1,1.31-3.86l.06,0a2.88,2.88,0,0,1,3.86,1.31l6.55,14.39C64.1,55.79,62.49,56.23,62.49,56.23Z"/><path class="cls-4" d="M54.29,37.42l-2.21-.54c-2.78,1.11-2.39,3.31-2,5.51l2.82.69A2.89,2.89,0,0,0,56.4,41V40.9A2.88,2.88,0,0,0,54.29,37.42Z"/><path class="cls-4" d="M18.62,16.18l0,0a2.29,2.29,0,0,0,1.09,3.06l10,4.73a2.28,2.28,0,0,0,3-1.09l0,0a2.29,2.29,0,0,0-1.09-3.06l-10-4.73A2.28,2.28,0,0,0,18.62,16.18Z"/><path class="cls-4" d="M13.58,5.65l0,0c-.49.38-.41,1.76.24,2.84l4.72,9.76a2.3,2.3,0,0,0,3.15.78l0,0a2.29,2.29,0,0,0,.78-3.15L16.06,6.62C15.4,5.54,14.66,5,13.58,5.65Z"/><path class="cls-4" d="M12.72,7.11a1.3,1.3,0,0,0,1.73.59l1.1-.54a1.11,1.11,0,0,0,.5-1.49L13.49.47A.84.84,0,0,0,12.14.24L11.37,1a2.17,2.17,0,0,0-.43,2.5Z"/><path class="cls-4" d="M15.34,5.45h0c.31.09.72,1.12.81.82l.62-3.69a.58.58,0,0,0-.39-.72h0a.58.58,0,0,0-.72.39l-.72,2.48A.59.59,0,0,0,15.34,5.45Z"/><path class="cls-4" d="M40.81,34.13a2.89,2.89,0,0,0-3.49,2.12v0a2.89,2.89,0,0,0,2.12,3.49l10.66,2.6c-.32-2.21,0-4.16,2-5.51Z"/><path class="cls-4" d="M32.78,19l-2,.36-8.27-3.92a8.33,8.33,0,0,1-1.9,4.23L29.68,24a2.28,2.28,0,0,0,3-1.09l0,0C33.3,21.73,33.93,19.57,32.78,19Z"/><path class="cls-4" d="M45.8,25.9l0,0a2.28,2.28,0,0,1-2.91.78,1.91,1.91,0,0,1-.27-.16l-1.48-1-7.69-5.18a2.29,2.29,0,0,1-.65-3.13h0a34.36,34.36,0,0,1,6,1.22.69.69,0,0,1,.29.12l5.78,3.89.34.23A2.29,2.29,0,0,1,45.8,25.9Z"/><path class="cls-4" d="M57.43,24.87v0c-.08.62.46.4-2.66.93L44.06,27.07a2.3,2.3,0,0,1-2.28-2.32v0a2.29,2.29,0,0,1,2.32-2.27l11.22.79C56.59,23.24,57.44,23.6,57.43,24.87Z"/><path class="cls-4" d="M44.56,22.3l-5.71-4.08v5.59l2.26,1.76,1.39.93A8,8,0,0,1,44.56,22.3Z"/><path class="cls-4" d="M37.71,17.72l-2.49-.36-10.1,1.32,7.27,21.18,8.72-2.18a2.93,2.93,0,0,0,2.13-3.55L39.68,19.5A2.36,2.36,0,0,0,37.71,17.72Z"/><path class="cls-4" d="M33.42,19.89h-.05a2.39,2.39,0,0,1-2.9-1.74l-1-4L34.17,13l1,4A2.4,2.4,0,0,1,33.42,19.89Z"/><path class="cls-4" d="M32.6,17.38h-.05A2.59,2.59,0,0,1,30,17c-.34-.27-.74-.63-1.25-1.12a6.5,6.5,0,0,1-1.23-2l-.07,0a.46.46,0,0,1-.26,0c-.37-.05-.59-.53-.83-1.15-.3-.77-.41-1.48,0-1.65a.75.75,0,0,1,.76.26l-.45-2.14A1.74,1.74,0,0,1,28,7.22l4.57-1a1.79,1.79,0,0,1,2.25,1.09l.36,1.93c.13-.33.25-.08.5-.09.46,0,.68.67.72,1.49,0,.67,0,1.2-.33,1.4a.43.43,0,0,1-.24.08h-.08a6.49,6.49,0,0,1-.33,2.29A16.44,16.44,0,0,1,34.76,16,2.59,2.59,0,0,1,32.6,17.38Z"/><path class="cls-4" d="M26.71,8.5a1.8,1.8,0,0,0-.05.46,1.36,1.36,0,0,0,0,.29l.38,1.86.11.51-.12-.22a1.55,1.55,0,0,0,.08.23,3.16,3.16,0,0,0-.48-.43h0a.3.3,0,0,0-.28-.07l-.52-1.81A3.46,3.46,0,0,1,25.78,8,3.53,3.53,0,0,0,26.71,8.5Z"/><path class="cls-4" d="M29,4.6c-.3-.17-.19-.82-.13-.76.68.56,1.4.18,3.39.37h0a3.86,3.86,0,0,1,1.71.71l.26.2a3.63,3.63,0,0,1,1.28,2.19l.25,1.87a.41.41,0,0,0-.29.18,1.31,1.31,0,0,0-.21.58,19.77,19.77,0,0,0-.78-3.07c-1.6-2.37-4.58,5-10.07.55,0,0,.57-.19.53-.24a5.09,5.09,0,0,1-1.08-1.32A2.36,2.36,0,0,0,26,6c.07,0-.37-.38-.28-.39a3.91,3.91,0,0,0,2-.48h0A3.73,3.73,0,0,1,29,4.6Z"/><path class="cls-4" d="M55.86,60.11c-.8.36-1.87.9-2.75-.93L45.75,44.74A2.9,2.9,0,0,1,47.37,41l.05,0a2.89,2.89,0,0,1,3.75,1.62l5.36,14.87C57.51,59.81,55.86,60.11,55.86,60.11Z"/><path class="cls-4" d="M49.22,40.7l-1.38-.46c-2.35.86-3.1,2.82-2.52,5.3l2.07.69A2.88,2.88,0,0,0,51,44.4l0-.06A2.88,2.88,0,0,0,49.22,40.7Z"/><path class="cls-4" d="M54,57.88c-.78,2-.83,4.44.31,4.24l9-1.43a.57.57,0,0,0,.11-1.1A26.12,26.12,0,0,0,54,57.88Z"/><path class="cls-4" d="M36,36.33a2.88,2.88,0,0,0-3.64,1.83l0,.05a2.89,2.89,0,0,0,1.83,3.65l11.11,3.68c-.16-2.45.64-4.24,2.52-5.3Z"/><path class="cls-4" d="M61.21,24.92l-.91,1.34a.62.62,0,0,1-.71.23l-.48-.17-.73.48-2.62-1.14-.44-2.43,4-.57a1.17,1.17,0,0,1,1.07.4l.81.93A.75.75,0,0,1,61.21,24.92Z"/><path class="cls-4" d="M58.84,26.07c-.19.26-.66.24-1.06-.05s-.58-.72-.4-1,.66-.23,1.06.05S59,25.81,58.84,26.07Z"/><path class="cls-4" d="M58.84,26.07,57.2,28.4l-1.46-1L57.38,25c.18-.25.66-.23,1.06.05S59,25.81,58.84,26.07Z"/><path class="cls-4" d="M57.2,28.4c.18-.26,0-.7-.4-1s-.87-.31-1.06-.05,0,.7.4,1S57,28.66,57.2,28.4Z"/><path class="cls-4" d="M63.39,59.59a28.63,28.63,0,0,0-6.28-1.71l.12,3.78,6.05-1a.57.57,0,0,0,.11-1.1Z"/><path class="cls-4" d="M38.27,65.33a.58.58,0,0,1-.09-1.16l40.94-6.49a6.23,6.23,0,0,0,4.53-3.25.58.58,0,1,1,1,.51,7.39,7.39,0,0,1-5.4,3.89L38.36,65.32Z"/><path class="cls-5" d="M60.44,54.16c-.62,2.06-.47,4.49.65,4.2l8.83-2.15a.56.56,0,0,0,.44-.55.57.57,0,0,0-.42-.56A26,26,0,0,0,60.44,54.16Z"/><path class="cls-6" d="M70,55.06a29.8,29.8,0,0,0-6.4-1.17L64,57.64l5.94-1.47a.56.56,0,0,0,.44-.55A.58.58,0,0,0,70,55.06Z"/><path class="cls-7" d="M45.36,62.91a.58.58,0,0,1-.14-1.15l40.25-9.92a6.26,6.26,0,0,0,4.24-3.63.6.6,0,0,1,.77-.33.57.57,0,0,1,.32.75,7.43,7.43,0,0,1-5,4.34L45.5,62.89A.32.32,0,0,1,45.36,62.91Z"/><path class="cls-8" d="M90.27,25.08h-24a.4.4,0,0,0-.39.39.39.39,0,0,0,.39.39h24Z"/><path class="cls-8" d="M56.61,28.1a.39.39,0,0,1-.38-.31.38.38,0,0,1,.29-.46l9.81-2.24a.4.4,0,0,1,.47.3.38.38,0,0,1-.29.46l-9.82,2.24Z"/><path class="cls-8" d="M66.42,25.86a.42.42,0,0,1-.21-.06l-5.64-3.59a.39.39,0,0,1-.12-.54.4.4,0,0,1,.54-.12l5.64,3.59a.4.4,0,0,1,.12.54A.39.39,0,0,1,66.42,25.86Z"/><path class="cls-9" d="M61.5,22.14c-.18.26-.65.23-1-.05s-.58-.72-.4-1,.65-.24,1.06.05S61.69,21.88,61.5,22.14Z"/><path class="cls-10" d="M61.5,22.14l-1.63,2.33-1.46-1,1.64-2.33c.18-.26.65-.24,1.06.05S61.69,21.88,61.5,22.14Z"/><path class="cls-9" d="M59.87,24.47c.18-.26,0-.7-.4-1s-.88-.3-1.06,0,0,.7.4,1S59.69,24.72,59.87,24.47Z"/><path class="cls-5" d="M62.49,56.23c-.77.42-1.8,1.05-2.83-.71l-8.5-13.8a2.89,2.89,0,0,1,1.31-3.86l.06,0a2.88,2.88,0,0,1,3.86,1.31l6.55,14.39C64.1,55.79,62.49,56.23,62.49,56.23Z"/><path class="cls-5" d="M54.29,37.42l-2.21-.54c-2.78,1.11-2.39,3.31-2,5.51l2.82.69A2.89,2.89,0,0,0,56.4,41V40.9A2.88,2.88,0,0,0,54.29,37.42Z"/><path class="cls-11" d="M18.62,16.18l0,0a2.29,2.29,0,0,0,1.09,3.06l10,4.73a2.28,2.28,0,0,0,3-1.09l0,0a2.29,2.29,0,0,0-1.09-3.06l-10-4.73A2.28,2.28,0,0,0,18.62,16.18Z"/><path class="cls-11" d="M13.58,5.65l0,0c-.49.38-.41,1.76.24,2.84l4.72,9.76a2.3,2.3,0,0,0,3.15.78l0,0a2.29,2.29,0,0,0,.78-3.15L16.06,6.62C15.4,5.54,14.66,5,13.58,5.65Z"/><path class="cls-11" d="M12.72,7.11a1.3,1.3,0,0,0,1.73.59l1.1-.54a1.11,1.11,0,0,0,.5-1.49L13.49.47A.84.84,0,0,0,12.14.24L11.37,1a2.17,2.17,0,0,0-.43,2.5Z"/><path class="cls-11" d="M15.34,5.45h0c.31.09.72,1.12.81.82l.62-3.69a.58.58,0,0,0-.39-.72h0a.58.58,0,0,0-.72.39l-.72,2.48A.59.59,0,0,0,15.34,5.45Z"/><path class="cls-12" d="M40.81,34.13a2.89,2.89,0,0,0-3.49,2.12v0a2.89,2.89,0,0,0,2.12,3.49l10.66,2.6c-.32-2.21,0-4.16,2-5.51Z"/><path class="cls-13" d="M32.78,19l-2,.36-8.27-3.92a8.33,8.33,0,0,1-1.9,4.23L29.68,24a2.28,2.28,0,0,0,3-1.09l0,0C33.3,21.73,33.93,19.57,32.78,19Z"/><path class="cls-11" d="M45.8,25.9l0,0a2.28,2.28,0,0,1-2.91.78,1.91,1.91,0,0,1-.27-.16l-1.48-1-7.69-5.18a2.29,2.29,0,0,1-.65-3.13h0a34.36,34.36,0,0,1,6,1.22.69.69,0,0,1,.29.12l5.78,3.89.34.23A2.29,2.29,0,0,1,45.8,25.9Z"/><path class="cls-11" d="M57.43,24.87v0c-.08.62.46.4-2.66.93L44.06,27.07a2.3,2.3,0,0,1-2.28-2.32v0a2.29,2.29,0,0,1,2.32-2.27l11.22.79C56.59,23.24,57.44,23.6,57.43,24.87Z"/><path class="cls-13" d="M44.56,22.3l-5.71-4.08v5.59l2.26,1.76,1.39.93A8,8,0,0,1,44.56,22.3Z"/><path class="cls-13" d="M37.71,17.72l-2.49-.36-10.1,1.32,7.27,21.18,8.72-2.18a2.93,2.93,0,0,0,2.13-3.55L39.68,19.5A2.36,2.36,0,0,0,37.71,17.72Z"/><path class="cls-5" d="M33.42,19.89h-.05a2.39,2.39,0,0,1-2.9-1.74l-1-4L34.17,13l1,4A2.4,2.4,0,0,1,33.42,19.89Z"/><path class="cls-11" d="M32.6,17.38h-.05A2.59,2.59,0,0,1,30,17c-.34-.27-.74-.63-1.25-1.12a6.5,6.5,0,0,1-1.23-2l-.07,0a.46.46,0,0,1-.26,0c-.37-.05-.59-.53-.83-1.15-.3-.77-.41-1.48,0-1.65a.75.75,0,0,1,.76.26l-.45-2.14A1.74,1.74,0,0,1,28,7.22l4.57-1a1.79,1.79,0,0,1,2.25,1.09l.36,1.93c.13-.33.25-.08.5-.09.46,0,.68.67.72,1.49,0,.67,0,1.2-.33,1.4a.43.43,0,0,1-.24.08h-.08a6.49,6.49,0,0,1-.33,2.29A16.44,16.44,0,0,1,34.76,16,2.59,2.59,0,0,1,32.6,17.38Z"/><path class="cls-14" d="M26.71,8.5a1.8,1.8,0,0,0-.05.46,1.36,1.36,0,0,0,0,.29l.38,1.86.11.51-.12-.22a1.55,1.55,0,0,0,.08.23,3.16,3.16,0,0,0-.48-.43h0a.3.3,0,0,0-.28-.07l-.52-1.81A3.46,3.46,0,0,1,25.78,8,3.53,3.53,0,0,0,26.71,8.5Z"/><path class="cls-4" d="M29,4.6c-.3-.17-.19-.82-.13-.76.68.56,1.4.18,3.39.37h0a3.86,3.86,0,0,1,1.71.71l.26.2a3.63,3.63,0,0,1,1.28,2.19l.25,1.87a.41.41,0,0,0-.29.18,1.31,1.31,0,0,0-.21.58,19.77,19.77,0,0,0-.78-3.07c-1.6-2.37-4.58,5-10.07.55,0,0,.57-.19.53-.24a5.09,5.09,0,0,1-1.08-1.32A2.36,2.36,0,0,0,26,6c.07,0-.37-.38-.28-.39a3.91,3.91,0,0,0,2-.48h0A3.73,3.73,0,0,1,29,4.6Z"/><path class="cls-11" d="M55.86,60.11c-.8.36-1.87.9-2.75-.93L45.75,44.74A2.9,2.9,0,0,1,47.37,41l.05,0a2.89,2.89,0,0,1,3.75,1.62l5.36,14.87C57.51,59.81,55.86,60.11,55.86,60.11Z"/><path class="cls-11" d="M49.22,40.7l-1.38-.46c-2.35.86-3.1,2.82-2.52,5.3l2.07.69A2.88,2.88,0,0,0,51,44.4l0-.06A2.88,2.88,0,0,0,49.22,40.7Z"/><path class="cls-11" d="M54,57.88c-.78,2-.83,4.44.31,4.24l9-1.43a.57.57,0,0,0,.11-1.1A26.12,26.12,0,0,0,54,57.88Z"/><path class="cls-13" d="M36,36.33a2.88,2.88,0,0,0-3.64,1.83l0,.05a2.89,2.89,0,0,0,1.83,3.65l11.11,3.68c-.16-2.45.64-4.24,2.52-5.3Z"/><path class="cls-11" d="M61.21,24.92l-.91,1.34a.62.62,0,0,1-.71.23l-.48-.17-.73.48-2.62-1.14-.44-2.43,4-.57a1.17,1.17,0,0,1,1.07.4l.81.93A.75.75,0,0,1,61.21,24.92Z"/><path class="cls-9" d="M58.84,26.07c-.19.26-.66.24-1.06-.05s-.58-.72-.4-1,.66-.23,1.06.05S59,25.81,58.84,26.07Z"/><path class="cls-10" d="M58.84,26.07,57.2,28.4l-1.46-1L57.38,25c.18-.25.66-.23,1.06.05S59,25.81,58.84,26.07Z"/><path class="cls-9" d="M57.2,28.4c.18-.26,0-.7-.4-1s-.87-.31-1.06-.05,0,.7.4,1S57,28.66,57.2,28.4Z"/><path class="cls-6" d="M63.39,59.59a28.63,28.63,0,0,0-6.28-1.71l.12,3.78,6.05-1a.57.57,0,0,0,.11-1.1Z"/><path class="cls-7" d="M38.27,65.33a.58.58,0,0,1-.09-1.16l40.94-6.49a6.23,6.23,0,0,0,4.53-3.25.58.58,0,1,1,1,.51,7.39,7.39,0,0,1-5.4,3.89L38.36,65.32Z"/><path class="cls-3" d="M8.79,44.33a1.14,1.14,0,0,0-.64.25.84.84,0,0,0-.28.56.79.79,0,0,0,1.41.55,1.08,1.08,0,0,0,.24-.64,1,1,0,0,1,0,.8,1.12,1.12,0,0,1-.71.66,1.21,1.21,0,0,1-1.2-.29A1.23,1.23,0,0,1,7.34,45,1.12,1.12,0,0,1,8,44.3,1,1,0,0,1,8.79,44.33Z"/><path class="cls-3" d="M14.57,42.58a1.83,1.83,0,0,0-1.12.43A1.52,1.52,0,0,0,13,44a1.38,1.38,0,0,0,2.45,1,1.82,1.82,0,0,0,.41-1.12,1.66,1.66,0,0,1,.08,1.39,1.94,1.94,0,0,1-1.23,1.15,2.09,2.09,0,0,1-2.62-2.58,1.94,1.94,0,0,1,1.12-1.25A1.67,1.67,0,0,1,14.57,42.58Z"/><path class="cls-3" d="M2.7,46.38a1.87,1.87,0,0,0-1.15.45,1.5,1.5,0,0,0-.51,1A1.47,1.47,0,0,0,1.46,49a1.46,1.46,0,0,0,2.12-.13A2,2,0,0,0,4,47.67a1.68,1.68,0,0,1,.07,1.44A2,2,0,0,1,2.81,50.3a2.13,2.13,0,0,1-2.16-.52,2.17,2.17,0,0,1-.56-2.16,2,2,0,0,1,1.17-1.29A1.7,1.7,0,0,1,2.7,46.38Z"/><path class="cls-3" d="M5.61,39.52a1.1,1.1,0,0,0-.63.25.78.78,0,0,0-.27.54.75.75,0,0,0,.22.61.79.79,0,0,0,1.15-.07,1,1,0,0,0,.23-.63.87.87,0,0,1,0,.78,1,1,0,0,1-.68.64,1.16,1.16,0,0,1-1.18-.28,1.19,1.19,0,0,1-.3-1.17,1.11,1.11,0,0,1,.63-.7A1,1,0,0,1,5.61,39.52Z"/><path class="cls-3" d="M4.4,53.32a2,2,0,0,0-1.23.47,1.61,1.61,0,0,0-.54,1.06,1.52,1.52,0,0,0,2.7,1.06,1.94,1.94,0,0,0,.45-1.23,1.77,1.77,0,0,1,.08,1.53,2.13,2.13,0,0,1-1.34,1.26,2.3,2.3,0,0,1-2.3-.55,2.33,2.33,0,0,1-.6-2.29,2.14,2.14,0,0,1,1.24-1.37A1.77,1.77,0,0,1,4.4,53.32Z"/><path class="cls-3" d="M13.59,57.13a1.24,1.24,0,0,0-.71.28,1,1,0,0,0-.31.62.85.85,0,0,0,.26.69.9.9,0,0,0,1.3-.08,1.21,1.21,0,0,0,.27-.71,1.09,1.09,0,0,1,0,.88,1.21,1.21,0,0,1-.78.73,1.31,1.31,0,0,1-1.33-.32A1.35,1.35,0,0,1,12,57.9a1.26,1.26,0,0,1,.72-.8A1.05,1.05,0,0,1,13.59,57.13Z"/><path class="cls-3" d="M20.72,54.51a2,2,0,0,0-1.25.48,1.65,1.65,0,0,0-.56,1.09,1.56,1.56,0,0,0,2.76,1.09,2.05,2.05,0,0,0,.47-1.26,1.83,1.83,0,0,1,.08,1.56,2.18,2.18,0,0,1-1.38,1.3,2.36,2.36,0,0,1-3-2.92,2.18,2.18,0,0,1,1.27-1.4A1.82,1.82,0,0,1,20.72,54.51Z"/><path class="cls-3" d="M12.4,37.81a1,1,0,0,0-.66.25.82.82,0,0,0-.06,1.22.85.85,0,0,0,1.22-.07,1.08,1.08,0,0,0,.24-.67,1,1,0,0,1,0,.83,1.18,1.18,0,0,1-.73.68,1.24,1.24,0,0,1-1.56-1.54,1.14,1.14,0,0,1,.67-.73A.93.93,0,0,1,12.4,37.81Z"/><path class="cls-2" d="M91.32,63.39v8.87a11.93,11.93,0,0,1-5-1,10.55,10.55,0,0,0-8,0,13.17,13.17,0,0,1-10,0,10.57,10.57,0,0,0-8,0,13.14,13.14,0,0,1-10,0,9.26,9.26,0,0,0-4-.79,9.18,9.18,0,0,0-4,.79,11.88,11.88,0,0,1-5,1,11.89,11.89,0,0,1-5-1,9.18,9.18,0,0,0-4-.79,9.19,9.19,0,0,0-4,.79,11.89,11.89,0,0,1-5,1,11.88,11.88,0,0,1-5-1,9.18,9.18,0,0,0-4-.79V61.62a11.84,11.84,0,0,1,5,1,9.32,9.32,0,0,0,4,.79,9.36,9.36,0,0,0,4-.79,11.84,11.84,0,0,1,5-1,11.82,11.82,0,0,1,5,1,9.43,9.43,0,0,0,4,.79,9.32,9.32,0,0,0,4-.79,11.84,11.84,0,0,1,5-1,11.84,11.84,0,0,1,5,1,10.57,10.57,0,0,0,8,0,13.14,13.14,0,0,1,10,0,10.57,10.57,0,0,0,8,0,13.17,13.17,0,0,1,10,0A9.38,9.38,0,0,0,91.32,63.39Z"/><path class="cls-3" d="M91.32,63.4v2.66a11.9,11.9,0,0,1-5-1,10.55,10.55,0,0,0-8,0,13,13,0,0,1-10,0,10.57,10.57,0,0,0-8,0,13,13,0,0,1-10,0,9.41,9.41,0,0,0-4-.79,9.32,9.32,0,0,0-4,.79,11.85,11.85,0,0,1-5,1,11.86,11.86,0,0,1-5-1,9.32,9.32,0,0,0-4-.79,9.34,9.34,0,0,0-4,.79,11.86,11.86,0,0,1-5,1,11.85,11.85,0,0,1-5-1,9.32,9.32,0,0,0-4-.79V61.63a12,12,0,0,1,5,1,9.16,9.16,0,0,0,4,.8,9.19,9.19,0,0,0,4-.8,12,12,0,0,1,5-1,12,12,0,0,1,5,1,9.26,9.26,0,0,0,4,.8,9.16,9.16,0,0,0,4-.8,12,12,0,0,1,5-1,12,12,0,0,1,5,1,10.45,10.45,0,0,0,8,0,13.27,13.27,0,0,1,10,0,10.45,10.45,0,0,0,8,0,13.29,13.29,0,0,1,10,0A9.21,9.21,0,0,0,91.32,63.4Z"/><path class="cls-3" d="M91.32,69.6v2.66a11.93,11.93,0,0,1-5-1,10.55,10.55,0,0,0-8,0,13.17,13.17,0,0,1-10,0,10.57,10.57,0,0,0-8,0,13.14,13.14,0,0,1-10,0,9.26,9.26,0,0,0-4-.79,9.18,9.18,0,0,0-4,.79,11.88,11.88,0,0,1-5,1,11.89,11.89,0,0,1-5-1,9.18,9.18,0,0,0-4-.79,9.19,9.19,0,0,0-4,.79,11.89,11.89,0,0,1-5,1,11.88,11.88,0,0,1-5-1,9.18,9.18,0,0,0-4-.79V67.83a11.84,11.84,0,0,1,5,1,9.32,9.32,0,0,0,4,.79,9.36,9.36,0,0,0,4-.79,11.84,11.84,0,0,1,5-1,11.82,11.82,0,0,1,5,1,9.43,9.43,0,0,0,4,.79,9.32,9.32,0,0,0,4-.79,11.84,11.84,0,0,1,5-1,11.84,11.84,0,0,1,5,1,10.57,10.57,0,0,0,8,0,13.14,13.14,0,0,1,10,0,10.57,10.57,0,0,0,8,0,13.17,13.17,0,0,1,10,0A9.38,9.38,0,0,0,91.32,69.6Z"/><path class="cls-2" d="M91.32,69.6v8.86a11.93,11.93,0,0,1-5-1,10.55,10.55,0,0,0-8,0,13.17,13.17,0,0,1-10,0,10.57,10.57,0,0,0-8,0,13.14,13.14,0,0,1-10,0,9.26,9.26,0,0,0-4-.79,9.18,9.18,0,0,0-4,.79,11.88,11.88,0,0,1-5,1,11.89,11.89,0,0,1-5-1,9.18,9.18,0,0,0-4-.79,9.19,9.19,0,0,0-4,.79,11.89,11.89,0,0,1-5,1,11.88,11.88,0,0,1-5-1,9.18,9.18,0,0,0-4-.79V67.83a11.87,11.87,0,0,1,5,1,9.16,9.16,0,0,0,4,.8,9.19,9.19,0,0,0,4-.8,11.87,11.87,0,0,1,5-1,11.85,11.85,0,0,1,5,1,9.26,9.26,0,0,0,4,.8,9.16,9.16,0,0,0,4-.8,11.87,11.87,0,0,1,5-1,11.87,11.87,0,0,1,5,1,10.45,10.45,0,0,0,8,0,13.27,13.27,0,0,1,10,0,10.45,10.45,0,0,0,8,0,13.29,13.29,0,0,1,10,0A9.21,9.21,0,0,0,91.32,69.6Z"/><path class="cls-3" d="M91.32,69.6v2.66a11.93,11.93,0,0,1-5-1,10.55,10.55,0,0,0-8,0,13.17,13.17,0,0,1-10,0,10.57,10.57,0,0,0-8,0,13.14,13.14,0,0,1-10,0,9.26,9.26,0,0,0-4-.79,9.18,9.18,0,0,0-4,.79,11.88,11.88,0,0,1-5,1,11.89,11.89,0,0,1-5-1,9.18,9.18,0,0,0-4-.79,9.19,9.19,0,0,0-4,.79,11.89,11.89,0,0,1-5,1,11.88,11.88,0,0,1-5-1,9.18,9.18,0,0,0-4-.79V67.83a11.87,11.87,0,0,1,5,1,9.16,9.16,0,0,0,4,.8,9.19,9.19,0,0,0,4-.8,11.87,11.87,0,0,1,5-1,11.85,11.85,0,0,1,5,1,9.26,9.26,0,0,0,4,.8,9.16,9.16,0,0,0,4-.8,11.87,11.87,0,0,1,5-1,11.87,11.87,0,0,1,5,1,10.45,10.45,0,0,0,8,0,13.27,13.27,0,0,1,10,0,10.45,10.45,0,0,0,8,0,13.29,13.29,0,0,1,10,0A9.21,9.21,0,0,0,91.32,69.6Z"/><path class="cls-3" d="M91.32,75.81v2.65a11.93,11.93,0,0,1-5-1,10.55,10.55,0,0,0-8,0,13.17,13.17,0,0,1-10,0,10.57,10.57,0,0,0-8,0,13.14,13.14,0,0,1-10,0,9.26,9.26,0,0,0-4-.79,9.18,9.18,0,0,0-4,.79,11.88,11.88,0,0,1-5,1,11.89,11.89,0,0,1-5-1,9.18,9.18,0,0,0-4-.79,9.19,9.19,0,0,0-4,.79,11.89,11.89,0,0,1-5,1,11.88,11.88,0,0,1-5-1,9.18,9.18,0,0,0-4-.79V74a11.84,11.84,0,0,1,5,1,9.3,9.3,0,0,0,4,.8,9.34,9.34,0,0,0,4-.8,11.84,11.84,0,0,1,5-1,11.82,11.82,0,0,1,5,1,9.41,9.41,0,0,0,4,.8,9.3,9.3,0,0,0,4-.8,11.84,11.84,0,0,1,5-1,11.84,11.84,0,0,1,5,1,10.45,10.45,0,0,0,8,0,13.14,13.14,0,0,1,10,0,10.45,10.45,0,0,0,8,0,13.17,13.17,0,0,1,10,0A9.35,9.35,0,0,0,91.32,75.81Z"/></g></g></svg>