<svg xmlns="http://www.w3.org/2000/svg" viewBox="0 0 103.77 105.51"><defs><style>.cls-1{fill:#634e42;}.cls-2{fill:#ebaf6e;}.cls-3{fill:#32b1f0;}.cls-4{fill:#52c6ff;}.cls-5{fill:#adf0ff;}.cls-6{fill:#e6332a;}.cls-7{fill:#3c3c3b;}.cls-8{fill:#292928;}.cls-9{fill:#ffbe78;}.cls-10{fill:#f9c484;}.cls-11{fill:#f9b233;}.cls-12{fill:#00a19a;}.cls-13{fill:#a48a7b;}</style></defs><g id="圖層_2" data-name="圖層 2"><g id="Layer_3" data-name="Layer 3"><path class="cls-1" d="M46.32,46.61h0a.26.26,0,0,1-.24-.3l.56-4.59a.29.29,0,0,1,.31-.24.28.28,0,0,1,.24.31l-.56,4.58A.29.29,0,0,1,46.32,46.61Z"/><path class="cls-1" d="M59.21,46.31h-.1L46.79,41.82a.27.27,0,0,1-.16-.35A.28.28,0,0,1,47,41.3L59.3,45.78a.27.27,0,0,1-.09.53Z"/><path class="cls-1" d="M59.7,45.64l-3,0,.18,2,2.81,0c.35,0,.63-.45.62-1S60,45.64,59.7,45.64Z"/><path class="cls-2" d="M57.06,47.9l0,0c-.43.38-.54-.14.67,2.48l4.6,8.71a2.1,2.1,0,0,0,2.92.52l0,0a2.1,2.1,0,0,0,.52-2.92l-6.39-8C58.72,47.69,58,47.24,57.06,47.9Z"/><path class="cls-2" d="M55.07,45.08l-.53,1.38a.56.56,0,0,0,.18.65l.38.28,0,.79,2.21,1.39,2.05-.93-1.6-3.27a1.12,1.12,0,0,0-.86-.61l-1.12-.12A.7.7,0,0,0,55.07,45.08Z"/><path class="cls-1" d="M55.44,45.71l-4.86,0v2l4.89,0c.35,0,.63-.45.62-1S55.79,45.7,55.44,45.71Z"/><path class="cls-3" d="M94.66,85c.16-.15-.38-.77-.46-.88a5.29,5.29,0,0,0-.89-.88,10.1,10.1,0,0,0-2-1.35,11.26,11.26,0,0,0-5.85-1.14c-4.55.3-8.46,2.91-12.1,5.41s-7.31,5-11.77,5.23a11.22,11.22,0,0,1-2.65-.17c-.42-.07-.82-.17-1.23-.26-.14,0-.57-.2-.7-.08s1.23,1,1.33,1.07a8.41,8.41,0,0,0,2.24.68c4.39.75,8.57-1.26,12.17-3.53,3.8-2.4,7.39-5.37,11.88-6.36a11.2,11.2,0,0,1,5.83.25,13.17,13.17,0,0,1,2.25,1c.35.19.69.38,1,.58C93.84,84.67,94.5,85.2,94.66,85Z"/><path class="cls-4" d="M84.57,76.23c0-.25-.81-.38-1-.4a7.32,7.32,0,0,0-1.24-.1,11.37,11.37,0,0,0-2.89.44A17.06,17.06,0,0,0,74,79c-3.5,2.64-6.28,6.12-9.82,8.73a18.12,18.12,0,0,1-5.45,2.82c-.72.21-1.44.35-2.17.49-.08,0-.92.13-.72.35a2.19,2.19,0,0,0,1.18.36,6.66,6.66,0,0,0,1.18,0,11,11,0,0,0,2.91-.5,17.54,17.54,0,0,0,5.51-2.94c3.39-2.65,6.15-6,9.62-8.58A18,18,0,0,1,81.55,77a21.68,21.68,0,0,1,2.15-.5c.14,0,.85-.07.87-.29S84.55,76.56,84.57,76.23Z"/><path class="cls-5" d="M93.69,80.63c.14-.17-.49-.74-.59-.83a7.87,7.87,0,0,0-1-.74,9.09,9.09,0,0,0-2.29-1,13.32,13.32,0,0,0-6-.22c-4.4.77-8.14,3.39-11.63,6s-6.7,5.2-10.73,6.56a17.52,17.52,0,0,1-5.42.88c-.23,0-.79-.08-1,.11s.78.49.88.52a10,10,0,0,0,2.49.37c4.26.07,8.25-2,11.68-4.33,3.65-2.5,7-5.51,11.09-7.35A15.52,15.52,0,0,1,88,79.21a12.22,12.22,0,0,1,3.18.52,10.08,10.08,0,0,1,1.23.47C92.61,80.27,93.54,80.81,93.69,80.63Z"/><path class="cls-5" d="M0,89.56v9.38a12.59,12.59,0,0,0,5.28-1,9.76,9.76,0,0,1,4.23-.83,9.82,9.82,0,0,1,4.25.83,12.52,12.52,0,0,0,5.28,1,12.5,12.5,0,0,0,5.27-1,9.79,9.79,0,0,1,4.23-.83,9.82,9.82,0,0,1,4.25.83,12.5,12.5,0,0,0,5.27,1,12.59,12.59,0,0,0,5.28-1,9.81,9.81,0,0,1,4.24-.83,9.79,9.79,0,0,1,4.23.83,13.9,13.9,0,0,0,10.55,0,11.22,11.22,0,0,1,8.47,0,13.9,13.9,0,0,0,10.55,0,9.81,9.81,0,0,1,4.24-.83V87.69a12.65,12.65,0,0,0-5.27,1,11.12,11.12,0,0,1-8.48,0,14,14,0,0,0-10.54,0,11.15,11.15,0,0,1-8.49,0,12.59,12.59,0,0,0-5.26-1,12.65,12.65,0,0,0-5.27,1,9.84,9.84,0,0,1-4.25.84,9.82,9.82,0,0,1-4.24-.84,12.67,12.67,0,0,0-5.28-1,12.59,12.59,0,0,0-5.26,1,9.82,9.82,0,0,1-4.24.84,9.84,9.84,0,0,1-4.25-.84,12.67,12.67,0,0,0-5.28-1,12.59,12.59,0,0,0-5.26,1A9.87,9.87,0,0,1,0,89.56Z"/><path class="cls-4" d="M0,89.57v2.81a12.75,12.75,0,0,0,5.28-1,9.74,9.74,0,0,1,4.23-.84,9.8,9.8,0,0,1,4.25.84,12.67,12.67,0,0,0,5.28,1,12.66,12.66,0,0,0,5.27-1,9.77,9.77,0,0,1,4.23-.84,9.8,9.8,0,0,1,4.25.84,12.66,12.66,0,0,0,5.27,1,12.75,12.75,0,0,0,5.28-1,9.79,9.79,0,0,1,4.24-.84,9.77,9.77,0,0,1,4.23.84,13.9,13.9,0,0,0,10.55,0,11.1,11.1,0,0,1,8.47,0,13.9,13.9,0,0,0,10.55,0,9.79,9.79,0,0,1,4.24-.84V87.69a12.65,12.65,0,0,0-5.27,1,11,11,0,0,1-8.48,0,14,14,0,0,0-10.54,0,11,11,0,0,1-8.49,0,12.59,12.59,0,0,0-5.26-1,12.65,12.65,0,0,0-5.27,1,9.82,9.82,0,0,1-4.25.85,9.8,9.8,0,0,1-4.24-.85,12.67,12.67,0,0,0-5.28-1,12.59,12.59,0,0,0-5.26,1,9.8,9.8,0,0,1-4.24.85,9.82,9.82,0,0,1-4.25-.85,12.67,12.67,0,0,0-5.28-1,12.59,12.59,0,0,0-5.26,1A9.85,9.85,0,0,1,0,89.57Z"/><path class="cls-4" d="M97,74.94a.94.94,0,0,1,.59.23.81.81,0,0,1,.26.5.76.76,0,0,1-.22.58.74.74,0,0,1-1.07-.07,1.07,1.07,0,0,1-.22-.59.92.92,0,0,0,0,.73,1,1,0,0,0,.65.61,1.09,1.09,0,0,0,1.1-.27,1.12,1.12,0,0,0,.28-1.09,1,1,0,0,0-.59-.66A.87.87,0,0,0,97,74.94Z"/><path class="cls-4" d="M87.86,72a1.71,1.71,0,0,1,1,.4,1.31,1.31,0,0,1,.44.88,1.25,1.25,0,0,1-.36,1,1.29,1.29,0,0,1-1.87-.11,1.78,1.78,0,0,1-.38-1,1.54,1.54,0,0,0-.06,1.27,1.76,1.76,0,0,0,1.11,1.05,1.89,1.89,0,0,0,1.91-.46,1.93,1.93,0,0,0,.49-1.9,1.75,1.75,0,0,0-1-1.13A1.55,1.55,0,0,0,87.86,72Z"/><path class="cls-4" d="M101.39,79.07a1.73,1.73,0,0,1,1,.4,1.29,1.29,0,0,1,.44.88,1.23,1.23,0,0,1-.37,1,1.27,1.27,0,0,1-1.86-.11,1.68,1.68,0,0,1-.38-1,1.54,1.54,0,0,0-.06,1.27,1.78,1.78,0,0,0,1.11,1,1.89,1.89,0,0,0,1.91-.46,1.93,1.93,0,0,0,.49-1.9,1.77,1.77,0,0,0-1-1.13A1.5,1.5,0,0,0,101.39,79.07Z"/><path class="cls-4" d="M97,85.14a1.07,1.07,0,0,1,.65.25A.9.9,0,0,1,98,86a.81.81,0,0,1-1.43.57,1.06,1.06,0,0,1-.24-.66,1,1,0,0,0,0,.81,1.1,1.1,0,0,0,.71.67,1.19,1.19,0,0,0,1.22-.29,1.23,1.23,0,0,0,.31-1.21,1.13,1.13,0,0,0-.66-.73A1,1,0,0,0,97,85.14Z"/><path class="cls-4" d="M89.88,85.5a1.82,1.82,0,0,1,1.15.44,1.53,1.53,0,0,1,.5,1,1.42,1.42,0,0,1-2.52,1,1.92,1.92,0,0,1-.43-1.15,1.72,1.72,0,0,0-.07,1.43,2,2,0,0,0,1.26,1.18,2.13,2.13,0,0,0,2.15-.51,2.17,2.17,0,0,0,.55-2.15,2,2,0,0,0-1.16-1.28A1.66,1.66,0,0,0,89.88,85.5Z"/><path class="cls-4" d="M94.22,69.41a.92.92,0,0,1,.6.23.8.8,0,0,1,.27.52.78.78,0,0,1-.22.59.76.76,0,0,1-1.11-.07.94.94,0,0,1-.22-.6.85.85,0,0,0,0,.75,1,1,0,0,0,.66.62,1.13,1.13,0,0,0,1.42-1.4,1,1,0,0,0-.61-.67A.83.83,0,0,0,94.22,69.41Z"/><path class="cls-4" d="M0,96.13v2.81a12.59,12.59,0,0,0,5.28-1,9.76,9.76,0,0,1,4.23-.83,9.82,9.82,0,0,1,4.25.83,12.52,12.52,0,0,0,5.28,1,12.5,12.5,0,0,0,5.27-1,9.79,9.79,0,0,1,4.23-.83,9.82,9.82,0,0,1,4.25.83,12.5,12.5,0,0,0,5.27,1,12.59,12.59,0,0,0,5.28-1,9.81,9.81,0,0,1,4.24-.83,9.79,9.79,0,0,1,4.23.83,13.9,13.9,0,0,0,10.55,0,11.22,11.22,0,0,1,8.47,0,13.9,13.9,0,0,0,10.55,0,9.81,9.81,0,0,1,4.24-.83V94.26a12.49,12.49,0,0,0-5.27,1,11.12,11.12,0,0,1-8.48,0,14,14,0,0,0-10.54,0,11.15,11.15,0,0,1-8.49,0,12.44,12.44,0,0,0-5.26-1,12.49,12.49,0,0,0-5.27,1,9.84,9.84,0,0,1-4.25.84,9.82,9.82,0,0,1-4.24-.84,12.51,12.51,0,0,0-5.28-1,12.44,12.44,0,0,0-5.26,1,9.82,9.82,0,0,1-4.24.84,9.84,9.84,0,0,1-4.25-.84,12.51,12.51,0,0,0-5.28-1,12.44,12.44,0,0,0-5.26,1A9.87,9.87,0,0,1,0,96.13Z"/><path class="cls-5" d="M0,96.13v9.37a12.59,12.59,0,0,0,5.28-1,9.76,9.76,0,0,1,4.23-.83,9.82,9.82,0,0,1,4.25.83,12.52,12.52,0,0,0,5.28,1,12.5,12.5,0,0,0,5.27-1,9.79,9.79,0,0,1,4.23-.83,9.82,9.82,0,0,1,4.25.83,12.5,12.5,0,0,0,5.27,1,12.59,12.59,0,0,0,5.28-1,9.81,9.81,0,0,1,4.24-.83,9.79,9.79,0,0,1,4.23.83,13.9,13.9,0,0,0,10.55,0,11.22,11.22,0,0,1,8.47,0,13.9,13.9,0,0,0,10.55,0,9.81,9.81,0,0,1,4.24-.83V94.25a12.46,12.46,0,0,0-5.27,1,11.12,11.12,0,0,1-8.48,0,13.87,13.87,0,0,0-10.54,0,11.15,11.15,0,0,1-8.49,0,12.41,12.41,0,0,0-5.26-1,12.46,12.46,0,0,0-5.27,1,9.84,9.84,0,0,1-4.25.84,9.82,9.82,0,0,1-4.24-.84,12.48,12.48,0,0,0-5.28-1,12.41,12.41,0,0,0-5.26,1,9.82,9.82,0,0,1-4.24.84,9.84,9.84,0,0,1-4.25-.84,12.48,12.48,0,0,0-5.28-1,12.41,12.41,0,0,0-5.26,1A9.87,9.87,0,0,1,0,96.13Z"/><path class="cls-4" d="M0,96.13v2.81a12.59,12.59,0,0,0,5.28-1,9.76,9.76,0,0,1,4.23-.83,9.82,9.82,0,0,1,4.25.83,12.52,12.52,0,0,0,5.28,1,12.5,12.5,0,0,0,5.27-1,9.79,9.79,0,0,1,4.23-.83,9.82,9.82,0,0,1,4.25.83,12.5,12.5,0,0,0,5.27,1,12.59,12.59,0,0,0,5.28-1,9.81,9.81,0,0,1,4.24-.83,9.79,9.79,0,0,1,4.23.83,13.9,13.9,0,0,0,10.55,0,11.22,11.22,0,0,1,8.47,0,13.9,13.9,0,0,0,10.55,0,9.81,9.81,0,0,1,4.24-.83V94.25a12.46,12.46,0,0,0-5.27,1,11.12,11.12,0,0,1-8.48,0,13.87,13.87,0,0,0-10.54,0,11.15,11.15,0,0,1-8.49,0,12.41,12.41,0,0,0-5.26-1,12.46,12.46,0,0,0-5.27,1,9.84,9.84,0,0,1-4.25.84,9.82,9.82,0,0,1-4.24-.84,12.48,12.48,0,0,0-5.28-1,12.41,12.41,0,0,0-5.26,1,9.82,9.82,0,0,1-4.24.84,9.84,9.84,0,0,1-4.25-.84,12.48,12.48,0,0,0-5.28-1,12.41,12.41,0,0,0-5.26,1A9.87,9.87,0,0,1,0,96.13Z"/><path class="cls-4" d="M0,102.69v2.82a12.75,12.75,0,0,0,5.28-1,9.74,9.74,0,0,1,4.23-.84,9.8,9.8,0,0,1,4.25.84,12.67,12.67,0,0,0,5.28,1,12.66,12.66,0,0,0,5.27-1,9.77,9.77,0,0,1,4.23-.84,9.8,9.8,0,0,1,4.25.84,12.66,12.66,0,0,0,5.27,1,12.75,12.75,0,0,0,5.28-1,9.79,9.79,0,0,1,4.24-.84,9.77,9.77,0,0,1,4.23.84,13.9,13.9,0,0,0,10.55,0,11.1,11.1,0,0,1,8.47,0,13.9,13.9,0,0,0,10.55,0,9.79,9.79,0,0,1,4.24-.84v-2.81a12.49,12.49,0,0,0-5.27,1,11.12,11.12,0,0,1-8.48,0,14,14,0,0,0-10.54,0,11.15,11.15,0,0,1-8.49,0,12.44,12.44,0,0,0-5.26-1,12.49,12.49,0,0,0-5.27,1,9.84,9.84,0,0,1-4.25.84,9.82,9.82,0,0,1-4.24-.84,12.51,12.51,0,0,0-5.28-1,12.44,12.44,0,0,0-5.26,1,9.82,9.82,0,0,1-4.24.84,9.84,9.84,0,0,1-4.25-.84,12.51,12.51,0,0,0-5.28-1,12.44,12.44,0,0,0-5.26,1A9.87,9.87,0,0,1,0,102.69Z"/><path class="cls-6" d="M62.86,86.12a2.88,2.88,0,0,1-2.61,4.08L21.93,93.34c-3.59.3-7.4-1.69-8.4-4.44h0c-1-2.75,1.25-5.08,4.9-5.19l39-1.22a5.88,5.88,0,0,1,5.41,3.63Z"/><rect class="cls-2" x="67.65" y="52.54" width="6.84" height="5.11" transform="translate(-0.68 109.29) rotate(-74.86)"/><path class="cls-7" d="M72.77,44c-.15-.28.26-.72.29-.64.22.77,1,.83,2.39,2h0a3.5,3.5,0,0,1,.94,1.4c0,.09.07.19.1.28a3.4,3.4,0,0,1-.13,2.31l-.76,1.55a.41.41,0,0,0-.31,0,1.24,1.24,0,0,0-.46.33,16.3,16.3,0,0,0,1-2.73c0-2.61-6,1.5-7.93-4.66,0-.06.53.14.51.09a5,5,0,0,1-.15-1.55s.23.78,1.55,1.2c.06,0-.08-.48,0-.44a3.47,3.47,0,0,0,1.74.62h0A3.37,3.37,0,0,1,72.77,44Z"/><path class="cls-2" d="M45.52,87.19c.65.44,1.52,1.1,2.63-.34l9.07-11.32A2.52,2.52,0,0,0,56.41,72l0,0a2.67,2.67,0,0,0-3.64.76l-7.36,12C44.09,86.64,45.52,87.19,45.52,87.19Z"/><path class="cls-2" d="M52.69,73.49,54,73.33c2,1.15,2.29,3,1.35,5.06l-2,.24a2.66,2.66,0,0,1-3-2.23v-.05A2.55,2.55,0,0,1,52.69,73.49Z"/><path class="cls-2" d="M47.58,85.56c.36,1.89,0,4-1,3.65l-7.8-2.8a.51.51,0,0,1,.1-1A24.68,24.68,0,0,1,47.58,85.56Z"/><path class="cls-8" d="M65.25,72a2.64,2.64,0,0,1,3,2.23v0a2.37,2.37,0,0,1-2.27,2.86L55.36,78.39c.13-2.2-.21-3.91-1.35-5.06Z"/><path class="cls-7" d="M67.55,55.44l5.12,1.24A3.61,3.61,0,0,1,75,61.74L68.29,75.62l-6.21-1c-1.37-.54-3.34-1.57-2.8-3l4.36-14.83C64,56,65.08,54.94,67.55,55.44Z"/><path class="cls-9" d="M38.05,87.53c.65.47,1.51,1.16,2.64-.31L50,75.73a2.63,2.63,0,0,0-.73-3.65l0,0a2.64,2.64,0,0,0-3.65.73L38,85C36.64,87,38.05,87.53,38.05,87.53Z"/><path class="cls-9" d="M48,71.45l2.09,0c2.19,1.61,1.35,3.47.49,5.32l-2.65,0a2.63,2.63,0,0,1-2.6-2.66V74A2.63,2.63,0,0,1,48,71.45Z"/><path class="cls-7" d="M66,71.8a2.64,2.64,0,0,1,2.6,2.67v0a2.63,2.63,0,0,1-2.66,2.6l-15.3-.32c.79-1.88.93-3.69-.49-5.32Z"/><path class="cls-9" d="M40.15,85.9c.32,1.94-.11,4.12-1.09,3.72l-7.74-3a.53.53,0,0,1,.12-1A23.73,23.73,0,0,1,40.15,85.9Z"/><path class="cls-10" d="M75.13,53.14a8.87,8.87,0,0,0,1.42-2.62c1.17-4.31-1.89-5-3.47-5.51-1.88-.48-4,.23-5,3a3.38,3.38,0,0,0,0,.57L67.06,50a.48.48,0,0,0,.14.71l.38.24c-.08.29-.49,1.51-.49,1.51-.2.73-.1,1.82.78,2.07l.93.25a3.56,3.56,0,0,0,3.74-2.5C73.23,52.43,74.68,53.69,75.13,53.14Z"/><path class="cls-7" d="M74,53.8c-3.07-.26-.44-3.06-.44-3.06s-1,.84-1.29,1.06c-.47-.15-.47-.15-.88-.31.94-3.68,2.14-5.09-2.11-5.47-.75-.38-.43-3,4.36-1.39a4.25,4.25,0,0,1,3.16,4.62C76.56,51.41,75.86,53.76,74,53.8Z"/><path class="cls-10" d="M74,51.17c-.21.67-1,1.27-1.44,1.13s-.23-.66,0-1.33c.14-.44.22-1.11.74-1.1S74.28,50.19,74,51.17Z"/><path class="cls-9" d="M50.12,48.06l0,0c-.43.38-.54-.14.67,2.48l4.6,8.71a2.1,2.1,0,0,0,2.92.52l0,0a2.1,2.1,0,0,0,.52-2.92l-6.39-8C51.78,47.85,51.07,47.4,50.12,48.06Z"/><path class="cls-7" d="M58.11,55.85l8-.55-2.43,4.56-6.34.28A6,6,0,0,0,58.11,55.85Z"/><path class="cls-9" d="M48.13,45.24l-.53,1.38a.55.55,0,0,0,.18.65l.38.28,0,.79,2.2,1.39,2.06-.93-1.61-3.27a1.09,1.09,0,0,0-.85-.61l-1.12-.12A.69.69,0,0,0,48.13,45.24Z"/><path class="cls-6" d="M23.27,4.29A23.53,23.53,0,0,1,34.62,5.78a4.08,4.08,0,0,0-2-3.07C18.58-5.27-3.38,5.2.5,23.37A4.25,4.25,0,0,0,2.82,26.2C1.71,14,12.07,5.49,23.27,4.29Z"/><path class="cls-11" d="M6.48,27.51a1.89,1.89,0,0,0,.61-.12,1.7,1.7,0,0,0,1-1A24.56,24.56,0,0,1,32.63,10.5,1.8,1.8,0,0,0,34,9.92a2.16,2.16,0,0,0,.27-.33A19.91,19.91,0,0,0,23.69,8.07C14,9.21,4.93,16.74,6.48,27.51Z"/><path class="cls-12" d="M34.62,5.78A23.53,23.53,0,0,0,23.27,4.29C12.07,5.49,1.71,14,2.82,26.2l.3.15,2.41,1a2.21,2.21,0,0,0,1,.16C4.93,16.74,14,9.21,23.69,8.07A19.91,19.91,0,0,1,34.28,9.59a2.22,2.22,0,0,0,.34-1.16c0-.79,0-1.17,0-2A5.07,5.07,0,0,0,34.62,5.78Z"/><path class="cls-1" d="M48.88,45.76l-3.18.06.08,2,3.12-.05c.35,0,.63-.45.62-1S49.22,45.76,48.88,45.76Z"/><path class="cls-13" d="M45.78,47.78c.35,0,.63-.45.62-1s-.29-1-.64-1-.63.45-.62,1S45.43,47.79,45.78,47.78Z"/><path class="cls-1" d="M1.85,24.7a.29.29,0,0,1-.28-.24.28.28,0,0,1,.24-.32l22.81-3.05a.29.29,0,0,1,.32.24.28.28,0,0,1-.24.31L1.88,24.69Z"/><path class="cls-1" d="M7.09,27a.28.28,0,0,1-.26-.2A.27.27,0,0,1,7,26.5l17.57-5.4a.29.29,0,0,1,.35.19.28.28,0,0,1-.19.34L7.17,27Z"/><path class="cls-1" d="M24.66,21.64a.31.31,0,0,1-.13,0,.28.28,0,0,1-.11-.37L33.48,4.57a.27.27,0,1,1,.48.26L24.9,21.5A.27.27,0,0,1,24.66,21.64Z"/><path class="cls-1" d="M24.66,21.64a.24.24,0,0,1-.16-.05.27.27,0,0,1-.06-.39L32.88,9.72a.27.27,0,0,1,.38-.06.28.28,0,0,1,.06.39L24.88,21.53A.27.27,0,0,1,24.66,21.64Z"/><path class="cls-1" d="M46.66,42.19,24.47,21.57a.27.27,0,0,1,0-.39.28.28,0,0,1,.39,0L47.38,41.48C47.49,41.58,46.71,42.24,46.66,42.19Z"/></g></g></svg>