<svg xmlns="http://www.w3.org/2000/svg" viewBox="0 0 92.76 68.94"><defs><style>.cls-1{fill:#adf0ff;}.cls-2{fill:#52c6ff;}.cls-3{fill:#ebaf6e;}.cls-4{fill:#1d1d1b;opacity:0.1;}.cls-5{fill:#ffbe78;}.cls-14,.cls-6{fill:#fff;}.cls-6{opacity:0.7;}.cls-7{fill:#e68a00;}.cls-8{fill:#f59300;}.cls-9{fill:#c6c6c6;}.cls-10{fill:#006964;}.cls-11{fill:#00a19a;}.cls-12{fill:#cc2d25;}.cls-13{fill:#e6332a;}.cls-14{opacity:0.8;}</style></defs><g id="圖層_2" data-name="圖層 2"><g id="Layer_3" data-name="Layer 3"><path class="cls-1" d="M92.76,51.67V61.83A13.62,13.62,0,0,1,87,60.71a12.06,12.06,0,0,0-9.19,0,15.14,15.14,0,0,1-11.43,0,12.06,12.06,0,0,0-9.19,0,13.53,13.53,0,0,1-5.71,1.12,13.7,13.7,0,0,1-5.72-1.12,10.52,10.52,0,0,0-4.59-.91,10.59,10.59,0,0,0-4.59.91,13.55,13.55,0,0,1-5.7,1.12,13.58,13.58,0,0,1-5.72-1.12,10.59,10.59,0,0,0-4.59-.91,10.55,10.55,0,0,0-4.59.91,13.62,13.62,0,0,1-5.72,1.12,13.53,13.53,0,0,1-5.71-1.12A10.55,10.55,0,0,0,0,59.8V49.64a13.92,13.92,0,0,1,5.71,1.11,10.53,10.53,0,0,0,4.59.92,10.58,10.58,0,0,0,4.6-.92,13.88,13.88,0,0,1,5.71-1.11,14,14,0,0,1,5.71,1.11,10.51,10.51,0,0,0,4.6.92,10.57,10.57,0,0,0,4.59-.92,13.87,13.87,0,0,1,5.7-1.11,13.88,13.88,0,0,1,5.71,1.11,10.58,10.58,0,0,0,4.6.92,10.53,10.53,0,0,0,4.59-.92,15.27,15.27,0,0,1,11.43,0,11.94,11.94,0,0,0,9.19,0,15.27,15.27,0,0,1,11.43,0A10.58,10.58,0,0,0,92.76,51.67Z"/><path class="cls-2" d="M92.76,51.67v3A13.59,13.59,0,0,1,87,53.59a12.18,12.18,0,0,0-9.19,0,15,15,0,0,1-11.43,0,12.18,12.18,0,0,0-9.19,0,13.5,13.5,0,0,1-5.71,1.13,13.67,13.67,0,0,1-5.72-1.13,10.69,10.69,0,0,0-4.59-.9,10.76,10.76,0,0,0-4.59.9,13.52,13.52,0,0,1-5.7,1.13,13.56,13.56,0,0,1-5.72-1.13,10.76,10.76,0,0,0-4.59-.9,10.72,10.72,0,0,0-4.59.9,13.59,13.59,0,0,1-5.72,1.13,13.5,13.5,0,0,1-5.71-1.13A10.72,10.72,0,0,0,0,52.69v-3a13.73,13.73,0,0,1,5.71,1.12,10.55,10.55,0,0,0,4.59.91,10.6,10.6,0,0,0,4.6-.91,13.69,13.69,0,0,1,5.71-1.12,13.77,13.77,0,0,1,5.71,1.12,10.53,10.53,0,0,0,4.6.91,10.59,10.59,0,0,0,4.59-.91,13.67,13.67,0,0,1,5.7-1.12,13.69,13.69,0,0,1,5.71,1.12,10.6,10.6,0,0,0,4.6.91,10.55,10.55,0,0,0,4.59-.91,15.14,15.14,0,0,1,11.43,0,12.06,12.06,0,0,0,9.19,0,15.14,15.14,0,0,1,11.43,0A10.6,10.6,0,0,0,92.76,51.67Z"/><path class="cls-2" d="M92.76,58.79v3A13.62,13.62,0,0,1,87,60.71a12.06,12.06,0,0,0-9.19,0,15.14,15.14,0,0,1-11.43,0,12.06,12.06,0,0,0-9.19,0,13.53,13.53,0,0,1-5.71,1.12,13.7,13.7,0,0,1-5.72-1.12,10.52,10.52,0,0,0-4.59-.91,10.59,10.59,0,0,0-4.59.91,13.55,13.55,0,0,1-5.7,1.12,13.58,13.58,0,0,1-5.72-1.12,10.59,10.59,0,0,0-4.59-.91,10.55,10.55,0,0,0-4.59.91,13.62,13.62,0,0,1-5.72,1.12,13.53,13.53,0,0,1-5.71-1.12A10.55,10.55,0,0,0,0,59.8v-3a13.76,13.76,0,0,1,5.71,1.11,10.53,10.53,0,0,0,4.59.92,10.58,10.58,0,0,0,4.6-.92,13.72,13.72,0,0,1,5.71-1.11,13.8,13.8,0,0,1,5.71,1.11,10.51,10.51,0,0,0,4.6.92,10.57,10.57,0,0,0,4.59-.92,13.7,13.7,0,0,1,5.7-1.11,13.72,13.72,0,0,1,5.71,1.11,10.58,10.58,0,0,0,4.6.92,10.53,10.53,0,0,0,4.59-.92,15.27,15.27,0,0,1,11.43,0,11.94,11.94,0,0,0,9.19,0,15.27,15.27,0,0,1,11.43,0A10.58,10.58,0,0,0,92.76,58.79Z"/><path class="cls-3" d="M26.75,52.3l0,7L66,59.14l0-7a6.22,6.22,0,0,0-4.3-5.9l-2.47-1-3.84-1.54-4-1.6V36.81c-1.33,1.56-2.44,1.94-5,1.95h-.09c-2.55,0-3.66-.36-5-1.91v5.31l-4,1.63-3.83,1.57-2.47,1A6.22,6.22,0,0,0,26.75,52.3Z"/><path class="cls-4" d="M34.64,54.77V59.3h-.71V54.77a.36.36,0,0,1,.36-.36A.35.35,0,0,1,34.64,54.77Z"/><path class="cls-4" d="M58.83,54.68V59.3h-.72V54.68a.36.36,0,0,1,.36-.36A.36.36,0,0,1,58.83,54.68Z"/><path class="cls-1" d="M92.76,58.79V68.94A13.59,13.59,0,0,1,87,67.81a12.18,12.18,0,0,0-9.19,0,15,15,0,0,1-11.43,0,12.18,12.18,0,0,0-9.19,0,13.5,13.5,0,0,1-5.71,1.13,13.67,13.67,0,0,1-5.72-1.13,10.69,10.69,0,0,0-4.59-.9,10.76,10.76,0,0,0-4.59.9,13.52,13.52,0,0,1-5.7,1.13,13.56,13.56,0,0,1-5.72-1.13,10.76,10.76,0,0,0-4.59-.9,10.72,10.72,0,0,0-4.59.9,13.59,13.59,0,0,1-5.72,1.13,13.5,13.5,0,0,1-5.71-1.13A10.72,10.72,0,0,0,0,66.91V56.75a13.57,13.57,0,0,1,5.71,1.12,10.53,10.53,0,0,0,4.59.92,10.58,10.58,0,0,0,4.6-.92,13.53,13.53,0,0,1,5.71-1.12,13.6,13.6,0,0,1,5.71,1.12,10.51,10.51,0,0,0,4.6.92,10.57,10.57,0,0,0,4.59-.92,13.51,13.51,0,0,1,5.7-1.12,13.53,13.53,0,0,1,5.71,1.12,10.58,10.58,0,0,0,4.6.92,10.53,10.53,0,0,0,4.59-.92,15.14,15.14,0,0,1,11.43,0,11.94,11.94,0,0,0,9.19,0,15.14,15.14,0,0,1,11.43,0A10.58,10.58,0,0,0,92.76,58.79Z"/><path class="cls-2" d="M92.76,58.79v3A13.59,13.59,0,0,1,87,60.7a12.18,12.18,0,0,0-9.19,0,15,15,0,0,1-11.43,0,12.18,12.18,0,0,0-9.19,0,13.5,13.5,0,0,1-5.71,1.13A13.67,13.67,0,0,1,45.8,60.7a10.69,10.69,0,0,0-4.59-.9,10.76,10.76,0,0,0-4.59.9,13.52,13.52,0,0,1-5.7,1.13A13.56,13.56,0,0,1,25.2,60.7a10.76,10.76,0,0,0-4.59-.9,10.72,10.72,0,0,0-4.59.9,13.59,13.59,0,0,1-5.72,1.13A13.5,13.5,0,0,1,4.59,60.7,10.72,10.72,0,0,0,0,59.8v-3a13.57,13.57,0,0,1,5.71,1.12,10.53,10.53,0,0,0,4.59.92,10.58,10.58,0,0,0,4.6-.92,13.53,13.53,0,0,1,5.71-1.12,13.6,13.6,0,0,1,5.71,1.12,10.51,10.51,0,0,0,4.6.92,10.57,10.57,0,0,0,4.59-.92,13.51,13.51,0,0,1,5.7-1.12,13.53,13.53,0,0,1,5.71,1.12,10.58,10.58,0,0,0,4.6.92,10.53,10.53,0,0,0,4.59-.92,15.14,15.14,0,0,1,11.43,0,11.94,11.94,0,0,0,9.19,0,15.14,15.14,0,0,1,11.43,0A10.58,10.58,0,0,0,92.76,58.79Z"/><path class="cls-2" d="M92.76,65.9v3A13.78,13.78,0,0,1,87,67.82a12.06,12.06,0,0,0-9.19,0,15.14,15.14,0,0,1-11.43,0,12.06,12.06,0,0,0-9.19,0,13.69,13.69,0,0,1-5.71,1.12,13.86,13.86,0,0,1-5.72-1.12,10.52,10.52,0,0,0-4.59-.91,10.59,10.59,0,0,0-4.59.91,13.71,13.71,0,0,1-5.7,1.12,13.74,13.74,0,0,1-5.72-1.12,10.59,10.59,0,0,0-4.59-.91,10.55,10.55,0,0,0-4.59.91,13.78,13.78,0,0,1-5.72,1.12,13.69,13.69,0,0,1-5.71-1.12A10.55,10.55,0,0,0,0,66.91v-3A13.6,13.6,0,0,1,5.71,65a10.53,10.53,0,0,0,4.59.92A10.58,10.58,0,0,0,14.9,65a13.56,13.56,0,0,1,5.71-1.11A13.63,13.63,0,0,1,26.32,65a10.51,10.51,0,0,0,4.6.92A10.57,10.57,0,0,0,35.51,65a13.54,13.54,0,0,1,5.7-1.11A13.56,13.56,0,0,1,46.92,65a10.58,10.58,0,0,0,4.6.92A10.53,10.53,0,0,0,56.11,65a13.65,13.65,0,0,1,5.72-1.11A13.56,13.56,0,0,1,67.54,65a11.94,11.94,0,0,0,9.19,0,15.27,15.27,0,0,1,11.43,0A10.58,10.58,0,0,0,92.76,65.9Z"/><path class="cls-5" d="M46.36,39.74h-.09c-2.54,0-3.65-.36-5-1.91-.59-.69-1.23-1.6-2.07-2.81a13,13,0,0,1-1.67-4.49l-.16,0a1,1,0,0,1-.53-.06c-.74-.27-1-1.33-1.2-2.69-.28-1.68-.21-3.18.73-3.34a1.61,1.61,0,0,1,1.45.84l0-4.53a3.59,3.59,0,0,1,3.58-3.61l9.7,0c2,0,4.1,1.17,4.11,3.16l-.1,4.06c.41-.6.55-.05,1.06,0,.93.15,1.1,1.65.83,3.34-.22,1.36-.52,2.42-1.26,2.7a1,1,0,0,1-.53.06l-.16,0A12.82,12.82,0,0,1,53.39,35a33.63,33.63,0,0,1-2,2.82C50,39.35,48.91,39.73,46.36,39.74Z"/><path class="cls-6" d="M40.18,22.74a2,2,0,0,0-2,2v1.07A3.74,3.74,0,0,0,42,29.49h.16a2.83,2.83,0,0,0,2.55-1.12,1.55,1.55,0,0,1,1.18-1h.81a1.59,1.59,0,0,1,1.18,1,2.81,2.81,0,0,0,2.54,1.12h.16a3.74,3.74,0,0,0,3.76-3.73V24.69a2,2,0,0,0-2-2Z"/><path class="cls-7" d="M38.17,19.24a3.89,3.89,0,0,0-.3.91,4,4,0,0,0,0,.6l0,3.93v1.08l-.15-.49c0-.05.1.54.07.49a6.4,6.4,0,0,0-.79-1.08h0a.64.64,0,0,0-.53-.24l-.3-3.91a7.53,7.53,0,0,1,.41-2.71A8.29,8.29,0,0,0,38.17,19.24Z"/><path class="cls-8" d="M44.36,12.27c-.54-.48,0-1.74.07-1.6,1.12,1.43,2.75.94,6.72,2.17h0A8.05,8.05,0,0,1,54.31,15c.16.17.3.34.45.51a7.67,7.67,0,0,1,1.67,5l-.28,3.91a.84.84,0,0,0-.66.25,2.81,2.81,0,0,0-.69,1.09,40.25,40.25,0,0,0-.27-6.55C52.27,13.69,43.12,27.4,33.86,16c-.07-.1,1.24-.15,1.16-.25a10.5,10.5,0,0,1-1.61-3.14s1.15,1.47,4.27,1.23c.15,0-.58-.94-.42-.91a8.09,8.09,0,0,0,4.21-.15h0A7.65,7.65,0,0,1,44.36,12.27Z"/><rect class="cls-9" x="56.83" width="2.03" height="25.04"/><path class="cls-6" d="M40.15,25.81v-1a1.91,1.91,0,0,1,.56-1.35A1.65,1.65,0,0,0,39.08,25v.86a3.09,3.09,0,0,0,2.59,2.91A3.58,3.58,0,0,1,40.15,25.81Z"/><polygon class="cls-10" points="38.02 25.91 36.29 24.57 36.29 23.35 38.02 23.35 38.02 25.91"/><polygon class="cls-10" points="54.52 25.91 56.25 24.57 56.25 23.35 54.52 23.35 54.52 25.91"/><path class="cls-6" d="M52.48,25.74V24.61a2.08,2.08,0,0,0-.62-1.5,1.84,1.84,0,0,1,1.82,1.73v1A3.42,3.42,0,0,1,50.79,29,4,4,0,0,0,52.48,25.74Z"/><path class="cls-11" d="M40.18,21.15a3.55,3.55,0,0,0-3.55,3.54v1.07c0,2.93,2.13,6.34,7.47,5.18a4.69,4.69,0,0,0,2.17.82,4.7,4.7,0,0,0,2.18-.82c5.33,1.16,7.46-2.25,7.46-5.18V24.69a3.55,3.55,0,0,0-3.54-3.54Zm6.09,7a.78.78,0,0,0-.85.52C45,29.82,43.3,30.34,42,30.28a4.52,4.52,0,0,1-4.52-4.52V24.69a2.75,2.75,0,0,1,2.75-2.75H52.37a2.75,2.75,0,0,1,2.75,2.75v1.07a4.52,4.52,0,0,1-4.52,4.52c-1.35.06-3-.46-3.48-1.61A.77.77,0,0,0,46.27,28.15Z"/><path class="cls-10" d="M40.18,21.94a2.75,2.75,0,0,0-2.75,2.75v1.07A4.52,4.52,0,0,0,42,30.28c1.35.06,3-.46,3.47-1.61a.78.78,0,0,1,.85-.52.77.77,0,0,1,.85.52c.47,1.15,2.13,1.67,3.48,1.61a4.52,4.52,0,0,0,4.52-4.52V24.69a2.75,2.75,0,0,0-2.75-2.75Zm5.69,5.44a1.55,1.55,0,0,0-1.18,1,2.83,2.83,0,0,1-2.55,1.12H42a3.74,3.74,0,0,1-3.76-3.73V24.69a2,2,0,0,1,2-2H52.37a2,2,0,0,1,2,2v1.07a3.74,3.74,0,0,1-3.76,3.73H50.4a2.81,2.81,0,0,1-2.54-1.12,1.59,1.59,0,0,0-1.18-1Z"/><path class="cls-12" d="M42.46,35V33.68a1,1,0,0,1,1-1h5.78a1,1,0,0,1,1,1V35C50.2,36.89,42.46,36.89,42.46,35Z"/><path class="cls-13" d="M49.1,35.81H46.33c-2,0-2-2.51,0-2.51H49.1a7.5,7.5,0,0,0,7.5-7.5V24.55a.31.31,0,0,1,.31-.31h1.88a.31.31,0,0,1,.31.31V25.8A10,10,0,0,1,49.1,35.81Z"/><polygon class="cls-14" points="58.66 22.85 57.49 0.25 58.66 0.25 58.66 22.85"/></g></g></svg>