<svg xmlns="http://www.w3.org/2000/svg" viewBox="0 0 93.16 73.81"><defs><style>.cls-1{fill:#00a19a;}.cls-2{fill:#3c3c3b;}.cls-3{fill:#ffbe78;}.cls-4{fill:#47aadb;}.cls-5{fill:#ebaf6e;}.cls-6{fill:#e6332a;}.cls-7{fill:#52c6ff;}.cls-8{fill:#cc2d25;}.cls-9{fill:#ededed;}.cls-10{fill:#adf0ff;}.cls-11{fill:#7b6a58;}.cls-12{fill:#f39200;}.cls-13{fill:#f9b233;}</style></defs><g id="圖層_2" data-name="圖層 2"><g id="Layer_3" data-name="Layer 3"><polygon class="cls-1" points="93.16 50.39 61.73 49.13 61.6 49.13 13.87 50.02 11.25 50.23 0 51.12 0 54.27 93.16 53.71 93.16 50.39"/><path class="cls-2" d="M61.79,49.59a1.94,1.94,0,0,1-1.94,1.95H13.09a2,2,0,0,1-1.84-1.31L13.87,50l7.48-.14,17.29-.33L48,49.38l3.95-.07,9.69-.18h.13A1.76,1.76,0,0,1,61.79,49.59Z"/><path class="cls-3" d="M37.23,10.67l2.4-3.52A40.53,40.53,0,0,0,43.77,9L41,13.87S36.88,12.1,37.23,10.67Z"/><path class="cls-3" d="M37.66,8.12A9.35,9.35,0,0,1,37.13,5C37.42.21,40.76.53,42.53.58c2.07.16,4,1.61,4,4.79a4.06,4.06,0,0,1-.25.56l.63,1.8a.51.51,0,0,1-.39.67l-.46.11c0,.32,0,1.7,0,1.7,0,.8-.53,1.88-1.5,1.83l-1-.07a3.8,3.8,0,0,1-2.93-3.81C39.83,8.05,37.93,8.83,37.66,8.12Z"/><path class="cls-2" d="M38.56,9.16c3.2.8,1.5-2.94,1.5-2.94s.69,1.18.94,1.51c.53,0,.53,0,1,0,.31-4-.43-5.9,4-4.82C46.9,2.77,47.49,0,42.08,0a4.53,4.53,0,0,0-4.79,3.59C36.8,5.87,36.71,8.5,38.56,9.16Z"/><path class="cls-3" d="M39.5,6.52c0,.75.59,1.63,1.08,1.64s.45-.6.48-1.34c0-.5.16-1.2-.37-1.37S39.53,5.42,39.5,6.52Z"/><path class="cls-4" d="M38.16,13.07a2.25,2.25,0,0,0-2.44,2v.05a2.25,2.25,0,0,0,2,2.44l6.51.58V13.62Z"/><path class="cls-5" d="M49,14l-4.69-.41v4.56l4.28.39A2.26,2.26,0,0,0,51,16.52v0A2.26,2.26,0,0,0,49,14Z"/><path class="cls-5" d="M58.34,9.33c.3.53.39,1.27-.7,2.34l-7.32,6.47a2.24,2.24,0,0,1-3.14-.51l0,0a2.24,2.24,0,0,1,.51-3.14L56.31,9.1A1.66,1.66,0,0,1,58.34,9.33Z"/><polygon class="cls-6" points="30.18 27.91 29.67 32.05 36.91 33.59 38.44 30.53 38.84 29.74 39.11 29.19 30.24 27.37 30.18 27.91"/><path class="cls-7" d="M39.67,11.58c-1.06-.57-2.93-1.53-4.41-1.17-2.13.52-3.13,2.65-3.43,4.07L30.24,27.37l8.87,1.82,4.66-9.29C46.15,14.36,42,12.79,39.67,11.58Z"/><path class="cls-5" d="M38.64,49.55a3.6,3.6,0,0,1-2,1.85l-.87.14h-19l.49-.25,4.14-1.41,13-4.43a3.34,3.34,0,0,1,4.37,1.71l0,.06A3,3,0,0,1,38.64,49.55Z"/><path class="cls-8" d="M36.55,32.58A3.33,3.33,0,0,0,32.6,30h-.07a3.34,3.34,0,0,0-2.89,3.71,40.4,40.4,0,0,0,1.48,6.87l6.65-.8Z"/><path class="cls-5" d="M37.77,39.82l-6.65.8A38,38,0,0,0,36.2,51.35a3.33,3.33,0,0,0,2.89-3.71Z"/><path class="cls-3" d="M53.3,34.21l-1.39,15.1-.21,2.23H48.1L48,49.38,47,34.92a3.3,3.3,0,0,1,2.75-3.79h.06A3.31,3.31,0,0,1,53.3,34.21Z"/><path class="cls-6" d="M33.45,29.25a3.47,3.47,0,0,0-3.8,3.11v.07a3.49,3.49,0,0,0,2,3.47c2.13,1,5.74,1.36,9.42,1.25l1.49-7Z"/><path class="cls-3" d="M50.06,30.91l-7.55-.75-1.49,7c6-.18,12.07-1.47,12.25-2.56C53.54,32.83,53,31.1,50.06,30.91Z"/><path class="cls-7" d="M43.86,14.38a2.25,2.25,0,0,0-3.15-.45l0,0a2.26,2.26,0,0,0-.45,3.16l4.53,6.06,3.36-3.11Z"/><path class="cls-3" d="M50.35,23.07l-2.24-3-3.36,3.11,2,2.62a2.25,2.25,0,0,0,3.15.46l0,0A2.25,2.25,0,0,0,50.35,23.07Z"/><path class="cls-3" d="M61.65,22.78v0c0,.61-1.08,1.4-2.32,1.56L49,26.78a2.25,2.25,0,0,1-2.53-1.93V24.8a2.25,2.25,0,0,1,1.93-2.53l11-.79C60.61,21.32,61.48,21.54,61.65,22.78Z"/><polygon class="cls-9" points="93.16 53.71 0 54.27 0 58.43 93.16 58.43 93.16 53.71"/><path class="cls-10" d="M93.16,56.2a14,14,0,0,0-2.45-.2,12.85,12.85,0,0,0-5.27,1A11,11,0,0,1,77,57a13.95,13.95,0,0,0-10.52,0A11,11,0,0,1,58,57a13.95,13.95,0,0,0-10.52,0,9.77,9.77,0,0,1-4.24.85A9.8,9.8,0,0,1,39,57a12.76,12.76,0,0,0-5.26-1v9.38a9.76,9.76,0,0,1,4.23.83,12.5,12.5,0,0,0,5.27,1,12.5,12.5,0,0,0,5.27-1,9.76,9.76,0,0,1,4.23-.83,9.76,9.76,0,0,1,4.23.83,13.87,13.87,0,0,0,10.54,0,11.19,11.19,0,0,1,8.46,0,12.59,12.59,0,0,0,5.28,1,12.44,12.44,0,0,0,5.26-1,9.77,9.77,0,0,1,4.24-.83,10.62,10.62,0,0,1,2.45.24Z"/><path class="cls-7" d="M93.16,56.2A14.09,14.09,0,0,0,90.71,56a12.69,12.69,0,0,0-5.27,1A11.12,11.12,0,0,1,77,57a13.95,13.95,0,0,0-10.52,0A11.12,11.12,0,0,1,58,57a13.95,13.95,0,0,0-10.52,0,9.79,9.79,0,0,1-4.24.84A9.82,9.82,0,0,1,39,57a12.59,12.59,0,0,0-5.26-1v2.81a9.76,9.76,0,0,1,4.23.83,12.5,12.5,0,0,0,5.27,1,12.5,12.5,0,0,0,5.27-1,9.76,9.76,0,0,1,4.23-.83,9.76,9.76,0,0,1,4.23.83,13.87,13.87,0,0,0,10.54,0,11.19,11.19,0,0,1,8.46,0,12.59,12.59,0,0,0,5.28,1,12.44,12.44,0,0,0,5.26-1,9.77,9.77,0,0,1,4.24-.83,10.62,10.62,0,0,1,2.45.24Z"/><path class="cls-7" d="M93.16,62.76a14.09,14.09,0,0,0-2.45-.19,12.53,12.53,0,0,0-5.27,1,11.12,11.12,0,0,1-8.48,0,13.95,13.95,0,0,0-10.52,0,11.12,11.12,0,0,1-8.48,0,12.44,12.44,0,0,0-5.26-1,12.47,12.47,0,0,0-5.26,1,9.79,9.79,0,0,1-4.24.84A9.82,9.82,0,0,1,39,63.6a12.44,12.44,0,0,0-5.26-1v2.81a9.76,9.76,0,0,1,4.23.83,12.5,12.5,0,0,0,5.27,1,12.5,12.5,0,0,0,5.27-1,9.76,9.76,0,0,1,4.23-.83,9.76,9.76,0,0,1,4.23.83,13.87,13.87,0,0,0,10.54,0,11.19,11.19,0,0,1,8.46,0,12.59,12.59,0,0,0,5.28,1,12.44,12.44,0,0,0,5.26-1,9.77,9.77,0,0,1,4.24-.83,10.62,10.62,0,0,1,2.45.24Z"/><path class="cls-10" d="M93.16,62.76a14.09,14.09,0,0,0-2.45-.19,12.53,12.53,0,0,0-5.27,1,11.12,11.12,0,0,1-8.48,0,13.95,13.95,0,0,0-10.52,0,11.12,11.12,0,0,1-8.48,0,12.44,12.44,0,0,0-5.26-1,12.47,12.47,0,0,0-5.26,1,9.94,9.94,0,0,1-4.24.84A10,10,0,0,1,39,63.6a12.44,12.44,0,0,0-5.26-1v9.36a9.76,9.76,0,0,1,4.23.83,12.5,12.5,0,0,0,5.27,1,12.5,12.5,0,0,0,5.27-1,9.76,9.76,0,0,1,4.23-.83,9.76,9.76,0,0,1,4.23.83,13.87,13.87,0,0,0,10.54,0,11.19,11.19,0,0,1,8.46,0,12.59,12.59,0,0,0,5.28,1,12.44,12.44,0,0,0,5.26-1,9.77,9.77,0,0,1,4.24-.83,10.62,10.62,0,0,1,2.45.24Z"/><path class="cls-7" d="M93.16,62.76a14.09,14.09,0,0,0-2.45-.19,12.53,12.53,0,0,0-5.27,1,11.12,11.12,0,0,1-8.48,0,13.95,13.95,0,0,0-10.52,0,11.12,11.12,0,0,1-8.48,0,12.44,12.44,0,0,0-5.26-1,12.47,12.47,0,0,0-5.26,1,9.94,9.94,0,0,1-4.24.84A10,10,0,0,1,39,63.6a12.44,12.44,0,0,0-5.26-1v2.81a9.76,9.76,0,0,1,4.23.83,12.5,12.5,0,0,0,5.27,1,12.5,12.5,0,0,0,5.27-1,9.76,9.76,0,0,1,4.23-.83,9.76,9.76,0,0,1,4.23.83,13.87,13.87,0,0,0,10.54,0,11.19,11.19,0,0,1,8.46,0,12.59,12.59,0,0,0,5.28,1,12.44,12.44,0,0,0,5.26-1,9.77,9.77,0,0,1,4.24-.83,10.62,10.62,0,0,1,2.45.24Z"/><path class="cls-7" d="M93.16,69.31a15.15,15.15,0,0,0-2.45-.19,12.69,12.69,0,0,0-5.27,1,11,11,0,0,1-8.48,0,13.95,13.95,0,0,0-10.52,0,11,11,0,0,1-8.48,0,13.95,13.95,0,0,0-10.52,0A9.77,9.77,0,0,1,43.2,71,9.8,9.8,0,0,1,39,70.15a12.59,12.59,0,0,0-5.26-1v2.81a9.74,9.74,0,0,1,4.23.84,12.66,12.66,0,0,0,5.27,1,12.66,12.66,0,0,0,5.27-1,9.74,9.74,0,0,1,4.23-.84,9.74,9.74,0,0,1,4.23.84,13.87,13.87,0,0,0,10.54,0,11.07,11.07,0,0,1,8.46,0,12.75,12.75,0,0,0,5.28,1,12.6,12.6,0,0,0,5.26-1,9.75,9.75,0,0,1,4.24-.84,10.54,10.54,0,0,1,2.45.25Z"/><path class="cls-10" d="M39.27,57A12.8,12.8,0,0,0,34,56a12.91,12.91,0,0,0-5.28,1,9.73,9.73,0,0,1-4.24.85A9.75,9.75,0,0,1,20.26,57,12.8,12.8,0,0,0,15,56a12.81,12.81,0,0,0-5.27,1,9.8,9.8,0,0,1-4.24.85A9.77,9.77,0,0,1,1.25,57c-.39-.15-.8-.3-1.25-.45v9.55l.22.08a12.54,12.54,0,0,0,5.27,1,12.5,12.5,0,0,0,5.27-1A9.77,9.77,0,0,1,15,65.38a9.79,9.79,0,0,1,4.23.83,12.44,12.44,0,0,0,5.26,1,12.42,12.42,0,0,0,5.27-1A9.86,9.86,0,0,1,34,65.38a9.76,9.76,0,0,1,4.23.83,12.54,12.54,0,0,0,5.27,1V57.88A9.77,9.77,0,0,1,39.27,57Z"/><path class="cls-7" d="M39.27,57A12.63,12.63,0,0,0,34,56a12.74,12.74,0,0,0-5.28,1,9.75,9.75,0,0,1-4.24.84A9.77,9.77,0,0,1,20.26,57,12.63,12.63,0,0,0,15,56a12.65,12.65,0,0,0-5.27,1,9.82,9.82,0,0,1-4.24.84A9.79,9.79,0,0,1,1.25,57c-.39-.15-.8-.31-1.25-.45v3l.22.08a12.54,12.54,0,0,0,5.27,1,12.5,12.5,0,0,0,5.27-1A9.77,9.77,0,0,1,15,58.82a9.79,9.79,0,0,1,4.23.83,12.44,12.44,0,0,0,5.26,1,12.42,12.42,0,0,0,5.27-1A9.86,9.86,0,0,1,34,58.82a9.76,9.76,0,0,1,4.23.83,12.54,12.54,0,0,0,5.27,1V57.88A9.79,9.79,0,0,1,39.27,57Z"/><path class="cls-7" d="M39.27,63.6a12.47,12.47,0,0,0-5.26-1,12.58,12.58,0,0,0-5.28,1,9.75,9.75,0,0,1-4.24.84,9.77,9.77,0,0,1-4.23-.84,12.47,12.47,0,0,0-5.26-1,12.49,12.49,0,0,0-5.27,1,9.82,9.82,0,0,1-4.24.84,9.79,9.79,0,0,1-4.24-.84c-.39-.16-.8-.31-1.25-.46v3l.22.08a12.54,12.54,0,0,0,5.27,1,12.5,12.5,0,0,0,5.27-1A9.77,9.77,0,0,1,15,65.38a9.79,9.79,0,0,1,4.23.83,12.44,12.44,0,0,0,5.26,1,12.42,12.42,0,0,0,5.27-1A9.86,9.86,0,0,1,34,65.38a9.76,9.76,0,0,1,4.23.83,12.54,12.54,0,0,0,5.27,1V64.44A9.79,9.79,0,0,1,39.27,63.6Z"/><path class="cls-10" d="M39.27,63.6a12.47,12.47,0,0,0-5.26-1,12.58,12.58,0,0,0-5.28,1,9.9,9.9,0,0,1-4.24.84,9.92,9.92,0,0,1-4.23-.84,12.47,12.47,0,0,0-5.26-1,12.49,12.49,0,0,0-5.27,1,10,10,0,0,1-4.24.84,9.94,9.94,0,0,1-4.24-.84c-.39-.16-.8-.32-1.25-.46v9.54l.22.08a12.54,12.54,0,0,0,5.27,1,12.5,12.5,0,0,0,5.27-1A9.77,9.77,0,0,1,15,71.93a9.79,9.79,0,0,1,4.23.83,12.44,12.44,0,0,0,5.26,1,12.42,12.42,0,0,0,5.27-1A9.86,9.86,0,0,1,34,71.93a9.76,9.76,0,0,1,4.23.83,12.54,12.54,0,0,0,5.27,1V64.44A9.94,9.94,0,0,1,39.27,63.6Z"/><path class="cls-7" d="M39.27,63.6a12.47,12.47,0,0,0-5.26-1,12.58,12.58,0,0,0-5.28,1,9.9,9.9,0,0,1-4.24.84,9.92,9.92,0,0,1-4.23-.84,12.47,12.47,0,0,0-5.26-1,12.49,12.49,0,0,0-5.27,1,10,10,0,0,1-4.24.84,9.94,9.94,0,0,1-4.24-.84c-.39-.16-.8-.32-1.25-.46v3l.22.09a12.54,12.54,0,0,0,5.27,1,12.5,12.5,0,0,0,5.27-1A9.77,9.77,0,0,1,15,65.38a9.79,9.79,0,0,1,4.23.83,12.44,12.44,0,0,0,5.26,1,12.42,12.42,0,0,0,5.27-1A9.86,9.86,0,0,1,34,65.38a9.76,9.76,0,0,1,4.23.83,12.54,12.54,0,0,0,5.27,1V64.44A9.94,9.94,0,0,1,39.27,63.6Z"/><path class="cls-7" d="M39.27,70.15a12.63,12.63,0,0,0-5.26-1,12.74,12.74,0,0,0-5.28,1,9.73,9.73,0,0,1-4.24.85,9.75,9.75,0,0,1-4.23-.85,12.63,12.63,0,0,0-5.26-1,12.65,12.65,0,0,0-5.27,1A9.8,9.8,0,0,1,5.49,71a9.77,9.77,0,0,1-4.24-.85C.86,70,.45,69.84,0,69.7v3l.22.09a12.7,12.7,0,0,0,5.27,1,12.66,12.66,0,0,0,5.27-1A9.75,9.75,0,0,1,15,71.93a9.77,9.77,0,0,1,4.23.84,12.6,12.6,0,0,0,5.26,1,12.58,12.58,0,0,0,5.27-1A9.84,9.84,0,0,1,34,71.93a9.74,9.74,0,0,1,4.23.84,12.7,12.7,0,0,0,5.27,1V71A9.77,9.77,0,0,1,39.27,70.15Z"/><path class="cls-5" d="M57.9,11.4,56.31,9.1l1.24-2.78,3.86-.26C62,8.71,61.09,10.18,57.9,11.4Z"/><rect class="cls-11" x="63.34" y="8.01" width="1.68" height="45.74" transform="translate(-4.93 13.67) rotate(-11.71)"/><path class="cls-3" d="M62.84,23.77l-1.52.64-2,0L59,21.5l2.38-1.61H62.9a1.18,1.18,0,0,1,1,.62,5,5,0,0,1,.59,2.56.89.89,0,0,1-1.09.83Z"/><path class="cls-11" d="M61.43,8.13l-3.71.74a.45.45,0,0,1-.5-.27,1.66,1.66,0,0,1-.14-.66.45.45,0,0,1,.36-.45l3.71-.74a.45.45,0,0,1,.49.25,1.37,1.37,0,0,1,.15.73A.43.43,0,0,1,61.43,8.13Z"/><path class="cls-5" d="M57.49,9.36a.6.6,0,0,1-.65.53h0a.59.59,0,0,1-.53-.64l.2-2.2a.6.6,0,0,1,.64-.54h0a.6.6,0,0,1,.54.65Z"/><path class="cls-5" d="M58.34,9.34a1.1,1.1,0,0,1-.65,1.37c-.49.09-1-.36-1.13-1a1.1,1.1,0,0,1,.65-1.37C57.7,8.22,58.21,8.68,58.34,9.34Z"/><path class="cls-3" d="M60.5,8l-2-.08a1.13,1.13,0,0,1-1.07-1.17l0-.67a.37.37,0,0,1,.3-.35,8.32,8.32,0,0,1,3.64.17.36.36,0,0,1,.28.37l0,.67A1.12,1.12,0,0,1,60.5,8Z"/><path class="cls-12" d="M72.05,60.72l-3.25.67A2.67,2.67,0,0,1,65.59,59l-1-10.16A2.67,2.67,0,0,1,66.67,46l1.21-.26a2.68,2.68,0,0,1,3.06,1.73L74,57.21A2.67,2.67,0,0,1,72.05,60.72Z"/><path class="cls-13" d="M68.46,51.51h0a1.15,1.15,0,0,1-1.36-.89l-1.32-6.39L68,43.77l1.33,6.38A1.15,1.15,0,0,1,68.46,51.51Z"/></g></g></svg>